<svg width="121" height="83" viewBox="0 0 121 83" fill="none" xmlns="http://www.w3.org/2000/svg">
<rect x="0.405412" width="9.37608" height="9.37608" transform="matrix(0.702322 -0.711859 0.702322 0.711859 107.139 9.87942)" stroke="white" stroke-width="0.577245"/>
<path d="M107.86 23.0707L100.045 18.6091L107.86 14.1475V23.0707Z" stroke="white" stroke-width="0.577245"/>
<path d="M102.784 3.84944C104.663 5.75394 104.697 8.78743 102.884 10.6251C101.071 12.4628 98.0781 12.4284 96.1992 10.5239C94.3202 8.6194 94.2862 5.58591 96.0993 3.74822C97.9124 1.91054 100.905 1.94495 102.784 3.84944Z" stroke="white" stroke-width="0.577245"/>
<rect x="38.6951" y="9.38015" width="42.7134" height="73.3422" rx="1.87605" stroke="white" stroke-width="0.288622"/>
<rect x="81.5527" y="22.1401" width="0.877591" height="9.10896" fill="white"/>
<rect x="81.5527" y="34.2856" width="0.877591" height="3.03632" fill="white"/>
<rect x="41.1836" y="9.99512" width="37.7365" height="0.75908" rx="0.144311" fill="white"/>
<ellipse cx="60.4905" cy="10.3745" rx="1.75519" ry="1.13862" fill="white"/>
<path d="M37.6977 53.5062C37.6977 54.6607 37.64 55.8344 37.5245 57.0274C37.4091 58.1819 37.1782 59.3171 36.8318 60.4331C36.4855 61.5107 35.966 62.5497 35.2733 63.5503C34.5806 64.5123 33.6377 65.359 32.4448 66.0901C31.8675 66.475 31.1748 66.8021 30.3667 67.0715C29.597 67.3024 28.7696 67.4948 27.8845 67.6487C27.0379 67.8411 26.1913 67.9566 25.3447 67.995C24.498 68.072 23.7091 68.0913 22.978 68.0528C19.5145 67.9373 16.7052 67.1099 14.5502 65.5706C12.4336 63.9928 10.7981 62.0494 9.6436 59.7404C8.52759 57.4315 7.79641 54.9301 7.45006 52.2363C7.1422 49.504 7.08448 46.9064 7.27689 44.4435C7.39234 42.9811 7.64248 41.4033 8.02731 39.71C8.45062 38.0168 9.04711 36.3813 9.81677 34.8035C10.6249 33.2257 11.6062 31.8018 12.7607 30.5319C13.9537 29.2619 15.3583 28.2998 16.9746 27.6456C18.4754 27.0299 20.111 26.6451 21.8812 26.4911C23.6899 26.2987 25.4601 26.3564 27.1918 26.6643C28.9621 26.9722 30.5976 27.5302 32.0984 28.3383C33.6377 29.1465 34.85 30.224 35.7351 31.5709C36.3508 32.5715 36.8318 33.7837 37.1782 35.2075C37.5245 36.6314 37.5822 37.9976 37.3514 39.306C37.1589 40.4605 36.7549 41.2686 36.1391 41.7304C35.5234 42.1537 34.85 42.3269 34.1188 42.2499C33.3876 42.1345 32.6757 41.8266 31.983 41.3263C31.3288 40.7876 30.8862 40.1141 30.6553 39.306C30.3859 38.4209 30.0588 37.6127 29.674 36.8815C29.2892 36.1119 28.6927 35.4769 27.8845 34.9766C26.9609 34.3994 25.9796 34.0723 24.9406 33.9953C23.94 33.9184 22.9587 34.0338 21.9966 34.3417C21.073 34.6495 20.1879 35.1306 19.3413 35.7848C18.5332 36.439 17.8597 37.1894 17.321 38.036C16.6667 38.9981 16.1665 40.0564 15.8201 41.2109C15.4738 42.3269 15.2236 43.5006 15.0697 44.7321C14.9158 45.925 14.858 47.1373 14.8965 48.3687C14.9735 49.5617 15.1274 50.7162 15.3583 51.8322C15.7816 53.7179 16.4358 55.4881 17.321 57.1428C17.6673 57.7586 18.1291 58.3166 18.7063 58.8169C19.3221 59.2786 19.9955 59.6635 20.7267 59.9713C21.4579 60.2407 22.2275 60.4139 23.0357 60.4909C23.8438 60.5678 24.6135 60.5101 25.3447 60.3177C26.3837 60.0483 27.2303 59.702 27.8845 59.2786C28.5387 58.8169 29.0583 58.2781 29.4431 57.6624C29.8279 57.0466 30.0781 56.3732 30.1935 55.642C30.3474 54.9108 30.4244 54.1412 30.4244 53.333V53.2753C29.9241 53.2753 29.4816 53.2753 29.0968 53.2753C28.7119 53.2368 28.4233 53.2176 28.2309 53.2176C27.3843 53.2176 26.5569 53.0636 25.7487 52.7558C25.056 52.5249 24.5365 52.1593 24.1902 51.659C23.8053 51.2357 23.6129 50.7162 23.6129 50.1005C23.6129 49.8696 23.6129 49.6579 23.6129 49.4655C23.6514 49.2346 23.6899 49.0037 23.7284 48.7728C23.8438 48.4649 24.094 48.0801 24.4788 47.6183C24.7097 47.4259 25.0753 47.272 25.5756 47.1565C25.8065 47.0795 26.0374 47.0218 26.2683 46.9833C26.4991 46.9064 26.7685 46.8486 27.0764 46.8102C27.3073 46.7717 27.5574 46.7524 27.8268 46.7524C28.0962 46.7524 28.3656 46.7524 28.635 46.7524H33.8879C34.3112 46.714 34.7922 46.7717 35.331 46.9256C35.9082 47.0411 36.3508 47.2335 36.6587 47.5029C36.7741 47.6568 36.8896 47.8107 37.005 47.9646C37.1205 48.1186 37.2167 48.2918 37.2936 48.4842C37.4476 48.9075 37.5438 49.3308 37.5823 49.7541C37.6207 49.985 37.64 50.2351 37.64 50.5045C37.6785 50.7354 37.6977 50.9471 37.6977 51.1395V53.5062ZM77.4915 63.0885C77.453 63.5503 77.3953 64.0313 77.3183 64.5316C77.2414 65.0319 77.1067 65.4937 76.9143 65.917C76.7219 66.3788 76.4717 66.7251 76.1639 66.956C75.7405 67.3408 75.2403 67.5525 74.663 67.591C74.1243 67.7834 73.6047 67.8411 73.1045 67.7641C72.6042 67.6872 72.1424 67.5525 71.7191 67.3601C71.1803 67.0137 70.7762 66.6097 70.5069 66.1479C70.276 65.6476 70.1028 65.1281 69.9873 64.5893C69.8719 64.0505 69.8142 63.4925 69.8142 62.9153C69.8142 62.338 69.8142 61.7993 69.8142 61.299V56.7965L69.7564 47.9646C69.7564 47.3489 69.7564 46.8679 69.7564 46.5215C69.7564 46.1752 69.7564 45.8673 69.7564 45.5979C69.7564 45.2901 69.7372 44.963 69.6987 44.6166C69.6987 44.2318 69.6987 43.693 69.6987 43.0003C69.6987 42.8849 69.6987 42.6925 69.6987 42.4231C69.7372 42.1152 69.718 41.3263 69.641 40.0564C68.1402 42.5578 66.8895 44.5781 65.8889 46.1175C64.9268 47.6183 64.0994 48.792 63.4067 49.6387C62.7525 50.4468 62.1753 51.0048 61.675 51.3127C61.1747 51.582 60.6552 51.736 60.1164 51.7745C59.8086 51.8129 59.5007 51.7552 59.1929 51.6013C58.885 51.4474 58.5771 51.2549 58.2693 51.024C57.9999 50.7931 57.7305 50.5623 57.4611 50.3314C57.2302 50.062 57.0378 49.8118 56.8839 49.5809C55.9603 48.4264 54.9212 47.0411 53.7668 45.4248C52.6123 43.8085 51.4193 41.8459 50.1878 39.5369C50.1878 39.5754 50.1686 40.2103 50.1301 41.4418C50.1301 42.6732 50.1301 44.2126 50.1301 46.0597C50.1301 47.8684 50.1109 49.8311 50.0724 51.9476C50.0724 54.0257 50.0531 55.9691 50.0147 57.7778C50.0147 59.5865 49.9954 61.1066 49.9569 62.338C49.9185 63.531 49.88 64.1275 49.8415 64.1275C49.8415 64.7817 49.6876 65.3974 49.3797 65.9747C49.0718 66.5135 48.6485 66.956 48.1098 67.3024C47.6095 67.6487 47.013 67.8411 46.3203 67.8796C45.6276 67.9181 44.8772 67.7257 44.069 67.3024C43.5688 66.9945 43.1839 66.5519 42.9145 65.9747C42.6837 65.3974 42.5297 64.8587 42.4528 64.3584C42.4143 63.8196 42.3758 63.3001 42.3373 62.7998C42.3373 62.2996 42.3373 61.78 42.3373 61.2413L42.395 56.7388L42.4528 47.8492V40.1141C42.4528 36.7661 42.5682 33.4758 42.7991 30.2432C42.7991 29.8199 42.8376 29.4351 42.9145 29.0887C43.03 28.7039 43.1647 28.3383 43.3186 27.992C43.6265 27.3762 44.0306 26.9144 44.5308 26.6066C45.1081 26.2602 45.7238 26.0871 46.378 26.0871C46.6474 26.0871 46.8975 26.1063 47.1284 26.1448C47.3978 26.1448 47.648 26.164 47.8789 26.2025C48.6485 26.3564 49.3027 26.8182 49.8415 27.5879C50.4187 28.3191 50.9575 28.954 51.4578 29.4928C51.7656 29.8392 52.0927 30.2625 52.4391 30.7627C52.7854 31.263 53.1318 31.7825 53.4781 32.3213C53.8245 32.8601 54.1516 33.3796 54.4594 33.8799C54.7673 34.3802 55.0367 34.8227 55.2676 35.2075C56.2681 36.8238 57.1533 38.3054 57.9229 39.6523C58.7311 40.9992 59.4815 42.1537 60.1742 43.1158C60.2896 43.0003 60.4243 42.8464 60.5782 42.654C60.7322 42.4231 60.8861 42.1922 61.04 41.9613C61.2325 41.6919 61.3864 41.4418 61.5018 41.2109C61.6558 40.98 61.7712 40.7876 61.8482 40.6336C62.233 40.0179 62.6178 39.4214 63.0027 38.8442C63.3875 38.2285 63.7916 37.5935 64.2149 36.9393C64.6767 36.2466 65.1385 35.4962 65.6003 34.688C66.1006 33.8799 66.6778 32.9563 67.332 31.9172C67.6014 31.4554 67.9477 30.8974 68.3711 30.2432C68.7944 29.589 69.2754 28.954 69.8142 28.3383C70.3529 27.7226 70.9109 27.2031 71.4882 26.7798C72.1039 26.318 72.7196 26.0871 73.3354 26.0871C73.6432 26.0871 73.9126 26.1063 74.1435 26.1448C74.3744 26.1448 74.6053 26.164 74.8362 26.2025C75.298 26.241 75.7405 26.4527 76.1639 26.8375C76.4717 27.1453 76.7026 27.4725 76.8566 27.8188C77.0105 28.3191 77.1067 28.7424 77.1452 29.0887C77.1837 29.3581 77.2029 29.6083 77.2029 29.8392C77.2414 30.0701 77.2606 30.301 77.2606 30.5319C77.2606 32.6869 77.2799 34.8227 77.3183 36.9393C77.3568 39.0558 77.3761 41.1916 77.3761 43.3467C77.3761 45.9635 77.3761 48.6573 77.3761 51.4281C77.4146 54.1989 77.4338 56.8927 77.4338 59.5095C77.4338 60.0483 77.453 60.6256 77.4915 61.2413C77.53 61.857 77.53 62.4727 77.4915 63.0885ZM113.683 44.0394C113.759 45.3093 113.74 46.6177 113.625 47.9646C113.548 49.3116 113.413 50.62 113.221 51.8899C112.836 54.0834 112.124 56.2193 111.085 58.2973C110.046 60.3754 108.526 62.1456 106.525 63.608C104.447 65.1473 102.08 66.2056 99.4246 66.7828C96.7692 67.3216 94.1332 67.6487 91.5163 67.7641C90.6312 67.8411 89.7269 67.8604 88.8033 67.8219C87.9181 67.8219 87.0523 67.7257 86.2057 67.5333C85.513 67.4178 84.9934 67.2061 84.6471 66.8983C84.4547 66.7828 84.3007 66.6289 84.1853 66.4365C84.0699 66.2441 83.9736 66.0517 83.8967 65.8592C83.7812 65.6668 83.685 65.4744 83.6081 65.282C83.5696 65.0511 83.5118 64.8202 83.4349 64.5893C83.3964 64.3969 83.3579 64.2237 83.3194 64.0698C83.3194 63.8774 83.3194 63.7042 83.3194 63.5503V30.5896C83.3194 30.3202 83.3194 30.0701 83.3194 29.8392C83.3194 29.6083 83.3579 29.3774 83.4349 29.1465C83.5118 28.6077 83.6273 28.1651 83.7812 27.8188C83.9352 27.357 84.1468 27.0299 84.4162 26.8375C84.6471 26.6451 84.878 26.5104 85.1089 26.4334C85.3398 26.318 85.5514 26.2218 85.7439 26.1448C85.9748 26.0678 86.2057 26.0678 86.4366 26.1448C86.7059 26.1833 86.9946 26.1255 87.3024 25.9716L96.9424 26.2025C99.4823 26.2795 101.753 26.876 103.754 27.992C105.755 29.0695 107.468 30.4549 108.891 32.1481C110.315 33.8414 111.431 35.7463 112.239 37.8629C113.048 39.9409 113.529 41.9998 113.683 44.0394ZM102.946 55.007C103.677 53.8525 104.216 52.5249 104.562 51.024C104.908 49.5232 105.062 48.0031 105.024 46.4638C104.985 44.886 104.774 43.3659 104.389 41.9036C104.004 40.4027 103.465 39.0751 102.773 37.9206C102.234 37.074 101.541 36.3813 100.695 35.8425C99.8479 35.3037 98.905 34.8997 97.866 34.6303C96.827 34.3224 95.711 34.1108 94.518 33.9953C93.3635 33.8799 92.2282 33.8221 91.1122 33.8221C91.1507 34.9382 91.17 36.0157 91.17 37.0547C91.17 38.0938 91.17 39.1905 91.17 40.345C91.1315 41.7304 91.1122 43.0773 91.1122 44.3857C91.1122 45.6942 91.1122 46.9641 91.1122 48.1955V59.9713C92.3052 59.9329 93.4405 59.8751 94.518 59.7982C95.634 59.6827 96.6923 59.4518 97.6928 59.1055C98.7319 58.7591 99.6747 58.2781 100.521 57.6624C101.406 57.0082 102.215 56.123 102.946 55.007Z" fill="white"/>
</svg>
