<svg width="38" height="38" viewBox="0 0 38 38" fill="none" xmlns="http://www.w3.org/2000/svg">
<path d="M21.0961 0.43457C20.7306 0.43457 20.4336 0.73157 20.4336 1.09757C20.4336 1.13157 20.4481 1.16107 20.4531 1.19407H20.4336V16.9131C20.4336 17.2791 20.7306 17.5761 21.0961 17.5761H36.8146V17.5566C36.8476 17.5616 36.8771 17.5761 36.9116 17.5761C37.2771 17.5761 37.5741 17.2791 37.5741 16.9131C37.4801 7.85307 30.1561 0.52907 21.0961 0.43457Z" fill="white"/>
<path d="M33.7428 20.73C33.7428 20.364 33.4463 20.067 33.0803 20.067H18.6308C18.455 20.0669 18.2865 19.997 18.1623 19.8727C18.0381 19.7484 17.9683 19.5798 17.9683 19.404V5.00755H17.9488C17.9538 4.97455 17.9683 4.94505 17.9683 4.91105C17.9683 4.54455 17.6713 4.24805 17.3053 4.24805C17.2893 4.24805 17.2763 4.25605 17.2608 4.25705V4.25255C17.2018 4.25205 17.1433 4.24805 17.0843 4.24805C7.88428 4.24805 0.425781 11.7065 0.425781 20.9065C0.425781 30.1065 7.88428 37.565 17.0843 37.565C26.2843 37.565 33.7428 30.1065 33.7428 20.9065C33.7428 20.8535 33.7403 20.801 33.7393 20.7475C33.7393 20.741 33.7428 20.736 33.7428 20.73Z" fill="white"/>
</svg>
