<svg width="38" height="38" viewBox="0 0 38 38" fill="none" xmlns="http://www.w3.org/2000/svg">
<path d="M20.6703 0C20.3048 0 20.0078 0.297 20.0078 0.663C20.0078 0.697 20.0223 0.7265 20.0273 0.7595H20.0078V16.4785C20.0078 16.8445 20.3048 17.1415 20.6703 17.1415H36.3888V17.122C36.4218 17.127 36.4513 17.1415 36.4858 17.1415C36.8513 17.1415 37.1483 16.8445 37.1483 16.4785C37.0543 7.4185 29.7303 0.0945 20.6703 0Z" fill="white"/>
<path d="M33.317 20.295C33.317 19.929 33.0205 19.632 32.6545 19.632H18.205C18.0292 19.6319 17.8607 19.5619 17.7365 19.4376C17.6123 19.3133 17.5425 19.1447 17.5425 18.969V4.57249H17.523C17.528 4.53949 17.5425 4.50999 17.5425 4.47599C17.5425 4.10949 17.2455 3.81299 16.8795 3.81299C16.8635 3.81299 16.8505 3.82099 16.835 3.82199V3.81749C16.776 3.81699 16.7175 3.81299 16.6585 3.81299C7.4585 3.81299 0 11.2715 0 20.4715C0 29.6715 7.4585 37.13 16.6585 37.13C25.8585 37.13 33.317 29.6715 33.317 20.4715C33.317 20.4185 33.3145 20.366 33.3135 20.3125C33.3135 20.306 33.317 20.301 33.317 20.295Z" fill="white"/>
</svg>
