<svg width="40" height="40" viewBox="0 0 40 40" fill="none" xmlns="http://www.w3.org/2000/svg">
<rect width="40" height="40" rx="20" fill="#E2EFF7"/>
<path d="M14 10H23C23.5304 10 24.0391 10.2107 24.4142 10.5858C24.7893 10.9609 25 11.4696 25 12V13C25 13.2652 24.8946 13.5196 24.7071 13.7071C24.5196 13.8946 24.2652 14 24 14C23.7348 14 23.4804 13.8946 23.2929 13.7071C23.1054 13.5196 23 13.2652 23 13V12H14V28H23V27C23 26.7348 23.1054 26.4804 23.2929 26.2929C23.4804 26.1054 23.7348 26 24 26C24.2652 26 24.5196 26.1054 24.7071 26.2929C24.8946 26.4804 25 26.7348 25 27V28C25 28.5304 24.7893 29.0391 24.4142 29.4142C24.0391 29.7893 23.5304 30 23 30H14C13.4696 30 12.9609 29.7893 12.5858 29.4142C12.2107 29.0391 12 28.5304 12 28V12C12 11.4696 12.2107 10.9609 12.5858 10.5858C12.9609 10.2107 13.4696 10 14 10Z" fill="white"/>
<path d="M24.795 24.2951C25.185 24.6851 25.815 24.6851 26.205 24.2951L29.793 20.7071C29.9805 20.5196 30.0858 20.2653 30.0858 20.0001C30.0858 19.735 29.9805 19.4807 29.793 19.2931L26.205 15.7051C26.0149 15.5333 25.7661 15.4411 25.5099 15.4476C25.2538 15.454 25.0099 15.5587 24.8287 15.7399C24.6476 15.921 24.5429 16.1649 24.5365 16.4211C24.53 16.6772 24.6222 16.926 24.794 17.1161L26.67 19.0001H18C17.7348 19.0001 17.4804 19.1055 17.2929 19.293C17.1054 19.4806 17 19.7349 17 20.0001C17 20.2653 17.1054 20.5197 17.2929 20.7072C17.4804 20.8948 17.7348 21.0001 18 21.0001H26.67L24.794 22.8841C24.6073 23.0715 24.5026 23.3253 24.5028 23.5898C24.503 23.8543 24.6081 24.108 24.795 24.2951Z" fill="white"/>
</svg>
