<svg width="40" height="40" viewBox="0 0 40 40" fill="none" xmlns="http://www.w3.org/2000/svg">
<rect width="40" height="40" rx="20" fill="#A4D5F6"/>
<path d="M29.874 26.0869L20.874 10.5069C20.7868 10.3531 20.6603 10.225 20.5074 10.136C20.3546 10.0469 20.1809 10 20.004 10C19.8271 10 19.6534 10.0469 19.5005 10.136C19.3477 10.225 19.2212 10.3531 19.134 10.5069L10.134 26.0869C10.0462 26.239 10 26.4114 10 26.5869C10 26.7625 10.0462 26.9349 10.134 27.0869C10.2221 27.2396 10.3489 27.3662 10.5017 27.454C10.6545 27.5418 10.8278 27.5876 11.004 27.5869H29.004C29.1802 27.5876 29.3535 27.5418 29.5062 27.454C29.659 27.3662 29.7859 27.2396 29.874 27.0869C29.9617 26.9349 30.0079 26.7625 30.0079 26.5869C30.0079 26.4114 29.9617 26.239 29.874 26.0869ZM12.734 25.5869L20.004 13.0069L27.274 25.5869H12.734Z" fill="white"/>
</svg>
