<svg width="112" height="99" viewBox="0 0 112 99" fill="none" xmlns="http://www.w3.org/2000/svg">
<path d="M110.407 80.5761L67.6307 6.46833C66.4981 4.51118 64.8256 2.87743 62.789 1.73911C60.7524 0.600787 58.4273 0 56.0582 0C53.6892 0 51.364 0.600787 49.3275 1.73911C47.2909 2.87743 45.6183 4.51118 44.4858 6.46833L1.66569 80.5761C0.544919 82.4683 -0.0290034 84.6037 0.00112816 86.7695C0.0312597 88.9354 0.664392 91.056 1.83742 92.9199C3.01044 94.7839 4.68238 96.3261 6.68659 97.3929C8.6908 98.4596 10.9573 99.0137 13.2601 98.9997H98.8125C101.096 99.0017 103.342 98.4452 105.328 97.3848C107.314 96.3245 108.973 94.7966 110.143 92.9513C111.312 91.1059 111.951 89.0063 111.997 86.8585C112.044 84.7107 111.496 82.5885 110.407 80.7V80.5761ZM49.4925 27.701C49.4925 26.0576 50.1865 24.4816 51.422 23.3195C52.6574 22.1575 54.333 21.5047 56.0802 21.5047C57.8274 21.5047 59.503 22.1575 60.7384 23.3195C61.9739 24.4816 62.6679 26.0576 62.6679 27.701V56.1627C62.6679 57.806 61.9739 59.3821 60.7384 60.5441C59.503 61.7061 57.8274 62.359 56.0802 62.359C54.333 62.359 52.6574 61.7061 51.422 60.5441C50.1865 59.3821 49.4925 57.806 49.4925 56.1627V27.701ZM56.2559 83.509C54.7618 83.509 53.3014 83.0923 52.0591 82.3116C50.8169 81.5308 49.8487 80.4212 49.277 79.1229C48.7052 77.8246 48.5556 76.396 48.8471 75.0178C49.1386 73.6395 49.858 72.3735 50.9145 71.3798C51.9709 70.3862 53.3169 69.7095 54.7822 69.4353C56.2475 69.1612 57.7663 69.3019 59.1466 69.8397C60.5269 70.3774 61.7067 71.2881 62.5367 72.4565C63.3668 73.6249 63.8098 74.9986 63.8098 76.4039C63.8098 78.2883 63.0139 80.0955 61.5973 81.428C60.1807 82.7604 58.2593 83.509 56.2559 83.509Z" fill="#FF0000"/>
<path d="M49.4925 27.701C49.4925 26.0576 50.1865 24.4816 51.422 23.3195C52.6574 22.1575 54.333 21.5047 56.0802 21.5047C57.8274 21.5047 59.503 22.1575 60.7384 23.3195C61.9739 24.4816 62.6679 26.0576 62.6679 27.701V56.1627C62.6679 57.806 61.9739 59.3821 60.7384 60.5441C59.503 61.7061 57.8274 62.359 56.0802 62.359C54.333 62.359 52.6574 61.7061 51.422 60.5441C50.1865 59.3821 49.4925 57.806 49.4925 56.1627V27.701Z" fill="white"/>
<path d="M56.2559 83.509C54.7618 83.509 53.3014 83.0923 52.0591 82.3116C50.8169 81.5308 49.8487 80.4212 49.277 79.1229C48.7052 77.8246 48.5556 76.396 48.8471 75.0178C49.1386 73.6395 49.858 72.3735 50.9145 71.3798C51.9709 70.3862 53.3169 69.7095 54.7822 69.4353C56.2475 69.1612 57.7663 69.3019 59.1466 69.8397C60.5269 70.3774 61.7067 71.2881 62.5367 72.4565C63.3668 73.6249 63.8098 74.9986 63.8098 76.4039C63.8098 78.2883 63.0139 80.0955 61.5973 81.428C60.1807 82.7604 58.2593 83.509 56.2559 83.509Z" fill="white"/>
</svg>
