<svg width="41" height="31" viewBox="0 0 41 31" fill="none" xmlns="http://www.w3.org/2000/svg">
<path d="M20.7266 21.8015V10.6831C20.7266 10.29 20.9317 9.9129 21.2969 9.63488C21.6621 9.35687 22.1575 9.20068 22.6739 9.20068H34.3581C34.8746 9.20068 35.3699 9.35687 35.7351 9.63488C36.1003 9.9129 36.3055 10.29 36.3055 10.6831V15.8717" stroke="white" stroke-width="3" stroke-linecap="round" stroke-linejoin="round"/>
<path d="M31.2105 8.13097V3.68362C31.2105 3.29045 31.0054 2.91338 30.6402 2.63537C30.275 2.35736 29.7796 2.20117 29.2632 2.20117H3.94737C3.43089 2.20117 2.93557 2.35736 2.57037 2.63537C2.20517 2.91338 2 3.29045 2 3.68362V21.473C2 21.8662 2.20517 22.2432 2.57037 22.5213C2.93557 22.7993 3.43089 22.9555 3.94737 22.9555H19.5263M27.3158 9.61341H31.2105M27.3158 24.4379H39M33.1579 19.9906V28.8852" stroke="white" stroke-width="3" stroke-linecap="round" stroke-linejoin="round"/>
</svg>
