<svg width="420" height="375" viewBox="0 0 420 375" fill="none" xmlns="http://www.w3.org/2000/svg">
<rect x="1.40464" width="32.4856" height="32.4856" transform="matrix(0.702322 -0.711859 0.702322 0.711859 371.212 34.2294)" stroke="white" stroke-width="2"/>
<path d="M373.707 79.9332L346.631 64.475L373.707 49.0167V79.9332Z" stroke="white" stroke-width="2"/>
<path d="M356.122 13.3369C362.632 19.9355 362.75 30.4457 356.468 36.8128C350.186 43.1799 339.817 43.0607 333.307 36.4621C326.797 29.8636 326.679 19.3533 332.961 12.9862C339.243 6.61915 349.612 6.73836 356.122 13.3369Z" stroke="white" stroke-width="2"/>
<rect x="134.07" y="32.5" width="147.991" height="254.111" rx="6.5" stroke="white"/>
<rect x="282.561" y="76.71" width="3.04062" height="31.5601" fill="white"/>
<rect x="282.561" y="118.791" width="3.04062" height="10.52" fill="white"/>
<rect x="142.692" y="34.6299" width="130.747" height="2.63001" rx="0.5" fill="white"/>
<ellipse cx="209.586" cy="35.945" rx="6.08125" ry="3.94502" fill="white"/>
<path d="M130.613 184.4C130.613 188.4 130.413 192.467 130.013 196.6C129.613 200.6 128.813 204.533 127.613 208.4C126.413 212.133 124.613 215.733 122.213 219.2C119.813 222.533 116.546 225.467 112.413 228C110.413 229.333 108.013 230.467 105.213 231.4C102.546 232.2 99.6792 232.867 96.6125 233.4C93.6792 234.067 90.7458 234.467 87.8125 234.6C84.8792 234.867 82.1458 234.933 79.6125 234.8C67.6125 234.4 57.8792 231.533 50.4125 226.2C43.0792 220.733 37.4125 214 33.4125 206C29.5458 198 27.0125 189.333 25.8125 180C24.7458 170.533 24.5458 161.533 25.2125 153C25.6125 147.933 26.4792 142.467 27.8125 136.6C29.2792 130.733 31.3458 125.067 34.0125 119.6C36.8125 114.133 40.2125 109.2 44.2125 104.8C48.3458 100.4 53.2125 97.0667 58.8125 94.8C64.0125 92.6667 69.6792 91.3333 75.8125 90.8C82.0792 90.1333 88.2125 90.3333 94.2125 91.4C100.346 92.4667 106.013 94.4 111.213 97.2C116.546 100 120.746 103.733 123.813 108.4C125.946 111.867 127.613 116.067 128.813 121C130.013 125.933 130.213 130.667 129.413 135.2C128.746 139.2 127.346 142 125.213 143.6C123.079 145.067 120.746 145.667 118.213 145.4C115.679 145 113.213 143.933 110.813 142.2C108.546 140.333 107.013 138 106.213 135.2C105.279 132.133 104.146 129.333 102.813 126.8C101.479 124.133 99.4125 121.933 96.6125 120.2C93.4125 118.2 90.0125 117.067 86.4125 116.8C82.9458 116.533 79.5458 116.933 76.2125 118C73.0125 119.067 69.9458 120.733 67.0125 123C64.2125 125.267 61.8792 127.867 60.0125 130.8C57.7458 134.133 56.0125 137.8 54.8125 141.8C53.6125 145.667 52.7458 149.733 52.2125 154C51.6792 158.133 51.4792 162.333 51.6125 166.6C51.8792 170.733 52.4125 174.733 53.2125 178.6C54.6792 185.133 56.9458 191.267 60.0125 197C61.2125 199.133 62.8125 201.067 64.8125 202.8C66.9458 204.4 69.2792 205.733 71.8125 206.8C74.3458 207.733 77.0125 208.333 79.8125 208.6C82.6125 208.867 85.2792 208.667 87.8125 208C91.4125 207.067 94.3458 205.867 96.6125 204.4C98.8792 202.8 100.679 200.933 102.013 198.8C103.346 196.667 104.213 194.333 104.613 191.8C105.146 189.267 105.413 186.6 105.413 183.8V183.6C103.679 183.6 102.146 183.6 100.813 183.6C99.4792 183.467 98.4792 183.4 97.8125 183.4C94.8792 183.4 92.0125 182.867 89.2125 181.8C86.8125 181 85.0125 179.733 83.8125 178C82.4792 176.533 81.8125 174.733 81.8125 172.6C81.8125 171.8 81.8125 171.067 81.8125 170.4C81.9458 169.6 82.0792 168.8 82.2125 168C82.6125 166.933 83.4792 165.6 84.8125 164C85.6125 163.333 86.8792 162.8 88.6125 162.4C89.4125 162.133 90.2125 161.933 91.0125 161.8C91.8125 161.533 92.7458 161.333 93.8125 161.2C94.6125 161.067 95.4792 161 96.4125 161C97.3458 161 98.2792 161 99.2125 161H117.413C118.879 160.867 120.546 161.067 122.412 161.6C124.413 162 125.946 162.667 127.012 163.6C127.413 164.133 127.813 164.667 128.213 165.2C128.613 165.733 128.946 166.333 129.213 167C129.746 168.467 130.079 169.933 130.213 171.4C130.346 172.2 130.413 173.067 130.413 174C130.546 174.8 130.613 175.533 130.613 176.2V184.4ZM268.488 217.6C268.354 219.2 268.154 220.867 267.888 222.6C267.621 224.333 267.154 225.933 266.488 227.4C265.821 229 264.954 230.2 263.888 231C262.421 232.333 260.688 233.067 258.688 233.2C256.821 233.867 255.021 234.067 253.288 233.8C251.554 233.533 249.954 233.067 248.488 232.4C246.621 231.2 245.221 229.8 244.287 228.2C243.488 226.467 242.888 224.667 242.488 222.8C242.088 220.933 241.888 219 241.888 217C241.888 215 241.888 213.133 241.888 211.4V195.8L241.688 165.2C241.688 163.067 241.688 161.4 241.688 160.2C241.688 159 241.688 157.933 241.688 157C241.688 155.933 241.621 154.8 241.487 153.6C241.487 152.267 241.487 150.4 241.487 148C241.487 147.6 241.487 146.933 241.487 146C241.621 144.933 241.554 142.2 241.288 137.8C236.088 146.467 231.754 153.467 228.288 158.8C224.954 164 222.088 168.067 219.688 171C217.421 173.8 215.421 175.733 213.688 176.8C211.954 177.733 210.154 178.267 208.288 178.4C207.221 178.533 206.154 178.333 205.088 177.8C204.021 177.267 202.954 176.6 201.888 175.8C200.954 175 200.021 174.2 199.088 173.4C198.288 172.467 197.621 171.6 197.088 170.8C193.888 166.8 190.288 162 186.288 156.4C182.288 150.8 178.154 144 173.888 136C173.888 136.133 173.821 138.333 173.688 142.6C173.688 146.867 173.688 152.2 173.688 158.6C173.688 164.867 173.621 171.667 173.488 179C173.488 186.2 173.421 192.933 173.288 199.2C173.288 205.467 173.221 210.733 173.088 215C172.954 219.133 172.821 221.2 172.688 221.2C172.688 223.467 172.154 225.6 171.088 227.6C170.021 229.467 168.554 231 166.688 232.2C164.954 233.4 162.888 234.067 160.488 234.2C158.088 234.333 155.488 233.667 152.688 232.2C150.954 231.133 149.621 229.6 148.688 227.6C147.888 225.6 147.354 223.733 147.088 222C146.954 220.133 146.821 218.333 146.688 216.6C146.688 214.867 146.688 213.067 146.688 211.2L146.888 195.6L147.088 164.8V138C147.088 126.4 147.488 115 148.288 103.8C148.288 102.333 148.421 101 148.688 99.8C149.088 98.4667 149.554 97.2 150.088 96C151.154 93.8667 152.554 92.2667 154.288 91.2C156.288 90 158.421 89.4 160.688 89.4C161.621 89.4 162.488 89.4667 163.288 89.6C164.221 89.6 165.088 89.6667 165.888 89.8C168.554 90.3333 170.821 91.9333 172.688 94.6C174.688 97.1333 176.554 99.3333 178.288 101.2C179.354 102.4 180.488 103.867 181.688 105.6C182.888 107.333 184.088 109.133 185.288 111C186.488 112.867 187.621 114.667 188.688 116.4C189.754 118.133 190.688 119.667 191.487 121C194.954 126.6 198.021 131.733 200.688 136.4C203.488 141.067 206.088 145.067 208.488 148.4C208.888 148 209.354 147.467 209.888 146.8C210.421 146 210.954 145.2 211.488 144.4C212.154 143.467 212.688 142.6 213.088 141.8C213.621 141 214.021 140.333 214.288 139.8C215.621 137.667 216.954 135.6 218.288 133.6C219.621 131.467 221.021 129.267 222.488 127C224.088 124.6 225.688 122 227.288 119.2C229.021 116.4 231.021 113.2 233.288 109.6C234.221 108 235.421 106.067 236.888 103.8C238.354 101.533 240.021 99.3333 241.888 97.2C243.754 95.0667 245.688 93.2667 247.688 91.8C249.821 90.2 251.954 89.4 254.088 89.4C255.154 89.4 256.088 89.4667 256.888 89.6C257.688 89.6 258.488 89.6667 259.288 89.8C260.888 89.9333 262.421 90.6667 263.888 92C264.954 93.0667 265.754 94.2 266.288 95.4C266.821 97.1333 267.154 98.6 267.288 99.8C267.421 100.733 267.488 101.6 267.488 102.4C267.621 103.2 267.688 104 267.688 104.8C267.688 112.267 267.754 119.667 267.888 127C268.021 134.333 268.088 141.733 268.088 149.2C268.088 158.267 268.088 167.6 268.088 177.2C268.221 186.8 268.288 196.133 268.288 205.2C268.288 207.067 268.354 209.067 268.488 211.2C268.621 213.333 268.621 215.467 268.488 217.6ZM393.88 151.6C394.146 156 394.08 160.533 393.68 165.2C393.413 169.867 392.946 174.4 392.28 178.8C390.946 186.4 388.48 193.8 384.88 201C381.28 208.2 376.013 214.333 369.08 219.4C361.88 224.733 353.68 228.4 344.48 230.4C335.28 232.267 326.146 233.4 317.08 233.8C314.013 234.067 310.88 234.133 307.68 234C304.613 234 301.613 233.667 298.68 233C296.28 232.6 294.48 231.867 293.28 230.8C292.613 230.4 292.08 229.867 291.68 229.2C291.28 228.533 290.946 227.867 290.68 227.2C290.28 226.533 289.946 225.867 289.68 225.2C289.546 224.4 289.346 223.6 289.08 222.8C288.946 222.133 288.813 221.533 288.68 221C288.68 220.333 288.68 219.733 288.68 219.2V105C288.68 104.067 288.68 103.2 288.68 102.4C288.68 101.6 288.813 100.8 289.08 100C289.346 98.1333 289.746 96.6 290.28 95.4C290.813 93.8 291.546 92.6667 292.48 92C293.28 91.3333 294.08 90.8667 294.88 90.6C295.68 90.2 296.413 89.8667 297.08 89.6C297.88 89.3333 298.68 89.3333 299.48 89.6C300.413 89.7333 301.413 89.5333 302.48 89L335.88 89.8C344.68 90.0667 352.546 92.1333 359.48 96C366.413 99.7333 372.346 104.533 377.28 110.4C382.213 116.267 386.08 122.867 388.88 130.2C391.68 137.4 393.346 144.533 393.88 151.6ZM356.68 189.6C359.213 185.6 361.08 181 362.28 175.8C363.48 170.6 364.013 165.333 363.88 160C363.746 154.533 363.013 149.267 361.68 144.2C360.346 139 358.48 134.4 356.08 130.4C354.213 127.467 351.813 125.067 348.88 123.2C345.946 121.333 342.68 119.933 339.08 119C335.48 117.933 331.613 117.2 327.48 116.8C323.48 116.4 319.546 116.2 315.68 116.2C315.813 120.067 315.88 123.8 315.88 127.4C315.88 131 315.88 134.8 315.88 138.8C315.746 143.6 315.68 148.267 315.68 152.8C315.68 157.333 315.68 161.733 315.68 166V206.8C319.813 206.667 323.746 206.467 327.48 206.2C331.346 205.8 335.013 205 338.48 203.8C342.08 202.6 345.346 200.933 348.28 198.8C351.346 196.533 354.146 193.467 356.68 189.6Z" fill="white"/>
<path d="M44.6294 360.28C44.576 360.6 44.536 360.92 44.5094 361.24C44.4827 361.533 44.416 361.84 44.3094 362.16C44.256 362.267 44.216 362.36 44.1894 362.44C44.1627 362.52 44.1227 362.613 44.0694 362.72C43.8827 363.093 43.6427 363.387 43.3494 363.6C42.736 363.973 42.056 364.067 41.3094 363.88C40.8827 363.8 40.536 363.64 40.2694 363.4C40.0294 363.187 39.8427 362.907 39.7094 362.56C39.6027 362.24 39.5094 361.92 39.4294 361.6C39.376 361.28 39.3494 361 39.3494 360.76C39.3494 360.52 39.3494 360.387 39.3494 360.36V335.64C39.3494 335.32 39.3494 334.973 39.3494 334.6C39.3494 334.227 39.376 333.853 39.4294 333.48C39.4827 333.107 39.5627 332.76 39.6694 332.44C39.776 332.12 39.9227 331.867 40.1094 331.68C40.4027 331.387 40.7094 331.213 41.0294 331.16C41.3494 331.08 41.696 331.04 42.0694 331.04C42.5227 331.04 42.936 331.173 43.3094 331.44C43.7094 331.68 43.9894 332.027 44.1494 332.48C44.3894 333.04 44.5227 333.627 44.5494 334.24C44.576 334.853 44.6027 335.467 44.6294 336.08V336.28C44.6827 338.333 44.696 340.44 44.6694 342.6C44.6427 344.76 44.6294 346.8 44.6294 348.72V358.84C44.6294 359.08 44.6294 359.32 44.6294 359.56C44.656 359.8 44.656 360.04 44.6294 360.28ZM25.7494 356.36C25.7227 356.04 25.7094 355.72 25.7094 355.4C25.7094 355.08 25.7094 354.76 25.7094 354.44V341.72C25.7094 341.293 25.7094 340.867 25.7094 340.44C25.7094 340.013 25.6827 339.573 25.6294 339.12C25.6027 338.987 25.5627 338.8 25.5094 338.56C25.4827 338.32 25.4027 338.173 25.2694 338.12C25.136 338.04 24.976 338.013 24.7894 338.04C24.6294 338.04 24.4694 338.027 24.3094 338C24.1227 337.973 23.936 337.973 23.7494 338C23.5894 338.027 23.416 338.027 23.2294 338H21.3494C20.896 338.027 20.4427 338.027 19.9894 338C19.536 337.973 19.0827 337.973 18.6294 338C18.416 338.027 18.216 338.04 18.0294 338.04C17.8694 338.013 17.6827 338 17.4694 338C17.176 338 16.8694 337.987 16.5494 337.96C16.2294 337.933 15.936 337.827 15.6694 337.64C15.296 337.373 15.0427 337.04 14.9094 336.64C14.776 336.24 14.7094 335.827 14.7094 335.4C14.6827 334.893 14.7894 334.387 15.0294 333.88C15.1627 333.56 15.336 333.333 15.5494 333.2C15.6827 333.067 15.8694 332.96 16.1094 332.88C16.376 332.773 16.6027 332.693 16.7894 332.64C17.3494 332.507 17.936 332.44 18.5494 332.44C19.1627 332.413 19.7627 332.4 20.3494 332.4H27.3094C27.656 332.453 28.016 332.507 28.3894 332.56C28.7894 332.587 29.1494 332.667 29.4694 332.8C29.6827 332.88 29.8827 332.987 30.0694 333.12C30.2827 333.253 30.456 333.413 30.5894 333.6C30.8294 333.973 30.9627 334.347 30.9894 334.72C31.0427 335.093 31.096 335.507 31.1494 335.96C31.2027 336.707 31.2294 337.453 31.2294 338.2C31.2294 338.92 31.2294 339.653 31.2294 340.4V353.52C31.2294 353.547 31.2294 353.76 31.2294 354.16C31.256 354.533 31.2694 354.987 31.2694 355.52C31.2694 356.027 31.2694 356.573 31.2694 357.16C31.2694 357.72 31.256 358.213 31.2294 358.64C31.2027 358.907 31.1627 359.187 31.1094 359.48C31.056 359.773 30.9627 360.053 30.8294 360.32C30.7227 360.587 30.5627 360.827 30.3494 361.04C30.136 361.253 29.856 361.427 29.5094 361.56C29.056 361.747 28.6027 361.84 28.1494 361.84C27.8027 361.84 27.456 361.773 27.1094 361.64C26.7627 361.48 26.5227 361.253 26.3894 360.96C25.9627 360.107 25.7494 359.16 25.7494 358.12V356.36ZM52.5925 358.32C52.5658 358.32 52.4592 358.293 52.2725 358.24C52.1125 358.187 51.9258 358.107 51.7125 358C51.4992 357.893 51.2992 357.747 51.1125 357.56C50.9258 357.373 50.8192 357.133 50.7925 356.84C50.6325 355.853 50.7925 355.053 51.2725 354.44C51.5925 354.067 51.9392 353.853 52.3125 353.8C52.6858 353.72 52.8858 353.68 52.9125 353.68H61.1925V353.4L61.2325 350.52C60.6192 350.52 59.8192 350.52 58.8325 350.52C57.8725 350.493 56.8725 350.48 55.8325 350.48C54.7925 350.453 53.7925 350.427 52.8325 350.4C51.8725 350.373 51.1125 350.333 50.5525 350.28C50.1258 350.227 49.7792 350.173 49.5125 350.12C49.2725 350.04 48.9792 349.84 48.6325 349.52C48.4458 349.36 48.3125 349.16 48.2325 348.92C48.1525 348.653 48.1125 348.373 48.1125 348.08C48.1125 347.52 48.2858 347.067 48.6325 346.72C48.8192 346.507 49.0725 346.347 49.3925 346.24C49.7125 346.133 50.0192 346.053 50.3125 346C50.6058 345.947 50.8592 345.92 51.0725 345.92C51.3125 345.92 51.4458 345.92 51.4725 345.92H74.3525C74.7525 345.92 75.1525 345.92 75.5525 345.92C75.9525 345.92 76.3392 345.933 76.7125 345.96C77.0858 345.987 77.4458 346.04 77.7925 346.12C78.1658 346.2 78.4992 346.373 78.7925 346.64C79.0858 346.853 79.2458 347.093 79.2725 347.36C79.3258 347.627 79.3525 347.92 79.3525 348.24C79.3525 349.093 78.9258 349.667 78.0725 349.96C77.5392 350.173 76.9525 350.307 76.3125 350.36C75.6992 350.387 75.1125 350.413 74.5525 350.44C73.2192 350.493 71.9125 350.533 70.6325 350.56C69.3525 350.587 68.0325 350.6 66.6725 350.6L66.6325 353.56V353.68H72.6725H72.7525C72.7792 353.68 72.8058 353.68 72.8325 353.68C72.8592 353.653 72.8992 353.64 72.9525 353.64C74.0458 353.64 74.8858 353.813 75.4725 354.16C76.0858 354.507 76.3925 354.987 76.3925 355.6V358.32C76.3925 358.453 76.3925 358.6 76.3925 358.76C76.4192 358.893 76.4325 359.027 76.4325 359.16C76.4325 359.293 76.4325 359.493 76.4325 359.76C76.4325 360.027 76.4325 360.307 76.4325 360.6C76.4325 360.867 76.4325 361.133 76.4325 361.4C76.4325 361.667 76.4192 361.88 76.3925 362.04C76.3392 362.6 76.1125 363.053 75.7125 363.4C75.3392 363.747 74.8458 363.92 74.2325 363.92C73.9392 363.92 73.6592 363.88 73.3925 363.8C73.0192 363.693 72.7258 363.533 72.5125 363.32C72.3258 363.107 72.1792 362.867 72.0725 362.6C71.9925 362.333 71.9258 362.053 71.8725 361.76C71.8458 361.44 71.8325 361.133 71.8325 360.84C71.8325 360.733 71.8192 360.56 71.7925 360.32C71.7925 360.08 71.7792 359.84 71.7525 359.6C71.7525 359.333 71.7392 359.093 71.7125 358.88C71.7125 358.667 71.6992 358.507 71.6725 358.4C71.5925 358.373 71.3658 358.347 70.9925 358.32C70.6458 358.293 69.9792 358.28 68.9925 358.28C68.5392 358.28 68.1392 358.293 67.7925 358.32C67.4458 358.32 67.1258 358.32 66.8325 358.32H65.9525H52.5925ZM57.6725 342C57.1658 342.347 56.6592 342.72 56.1525 343.12C55.6725 343.52 55.0858 343.787 54.3925 343.92C54.1525 343.973 53.8992 344.027 53.6325 344.08C53.3925 344.133 53.1525 344.147 52.9125 344.12C52.6725 344.093 52.4325 344.027 52.1925 343.92C51.9792 343.787 51.7792 343.573 51.5925 343.28C51.3792 342.96 51.2592 342.667 51.2325 342.4C51.2325 342.107 51.2858 341.84 51.3925 341.6C51.5258 341.36 51.6858 341.133 51.8725 340.92C52.0592 340.707 52.2592 340.507 52.4725 340.32C53.2725 339.6 54.0992 338.853 54.9525 338.08C55.8325 337.28 56.7258 336.573 57.6325 335.96C57.9258 335.773 58.2592 335.52 58.6325 335.2C59.0325 334.853 59.4192 334.52 59.7925 334.2C60.2192 333.827 60.6592 333.44 61.1125 333.04C61.0592 332.667 61.0458 332.307 61.0725 331.96C61.0992 331.667 61.1658 331.36 61.2725 331.04C61.3792 330.693 61.5792 330.413 61.8725 330.2C62.2192 329.96 62.6858 329.8 63.2725 329.72C63.8592 329.64 64.3658 329.653 64.7925 329.76C65.4058 329.92 65.8058 330.173 65.9925 330.52C66.2058 330.867 66.3525 331.28 66.4325 331.76C66.4858 332.16 66.5658 332.533 66.6725 332.88C66.7792 333.227 66.9792 333.573 67.2725 333.92C67.4858 334.16 67.7525 334.4 68.0725 334.64C68.4192 334.88 68.7258 335.107 68.9925 335.32C69.9258 336.12 70.8325 336.867 71.7125 337.56C72.6192 338.253 73.5525 339 74.5125 339.8C74.8325 340.04 75.0992 340.36 75.3125 340.76C75.5525 341.133 75.7125 341.52 75.7925 341.92C75.8725 342.293 75.8458 342.667 75.7125 343.04C75.6058 343.387 75.3525 343.667 74.9525 343.88C74.1792 344.173 73.4325 344.16 72.7125 343.84C72.0192 343.493 71.4192 343.093 70.9125 342.64C70.3792 342.24 69.7658 341.84 69.0725 341.44C68.3792 341.013 67.7792 340.573 67.2725 340.12L63.7125 337.56C63.3392 337.853 63.0058 338.12 62.7125 338.36C62.4458 338.573 62.1925 338.76 61.9525 338.92C61.7392 339.08 61.6058 339.187 61.5525 339.24C60.9658 339.693 60.3258 340.16 59.6325 340.64C58.9658 341.093 58.3125 341.547 57.6725 342ZM98.8041 356.92C98.8841 357.053 98.9507 357.2 99.0041 357.36C99.0841 357.493 99.1507 357.653 99.2041 357.84C99.2841 358.133 99.3374 358.453 99.3641 358.8C99.3907 359.147 99.3107 359.507 99.1241 359.88C98.6974 360.707 98.1107 361.147 97.3641 361.2H97.3241C96.8441 361.2 96.4174 361.04 96.0441 360.72C95.6974 360.4 95.3241 360.013 94.9241 359.56C94.5241 359.133 94.1507 358.693 93.8041 358.24C93.4574 357.787 93.1507 357.387 92.8841 357.04C92.8574 356.987 92.8174 356.933 92.7641 356.88C92.7374 356.8 92.6974 356.707 92.6441 356.6C91.9774 355.587 91.4841 354.893 91.1641 354.52C90.8441 354.147 90.6574 353.947 90.6041 353.92C90.5507 353.973 90.4174 354.12 90.2041 354.36C90.0174 354.573 89.8974 354.707 89.8441 354.76C89.7907 354.84 89.7374 354.92 89.6841 355C89.6307 355.053 89.5774 355.107 89.5241 355.16C89.2841 355.427 89.0841 355.707 88.9241 356C88.7907 356.267 88.6174 356.547 88.4041 356.84C88.1907 357.133 87.9641 357.413 87.7241 357.68C87.5107 357.947 87.2841 358.213 87.0441 358.48C86.9374 358.587 86.8307 358.72 86.7241 358.88C86.3241 359.333 85.8974 359.773 85.4441 360.2C85.0174 360.627 84.5107 360.947 83.9241 361.16C83.6841 361.267 83.4174 361.32 83.1241 361.32C82.5107 361.32 81.9641 361.08 81.4841 360.6C81.0307 360.147 80.8041 359.587 80.8041 358.92C80.8307 358.44 80.9507 357.987 81.1641 357.56C81.4041 357.133 81.6307 356.733 81.8441 356.36L81.9241 356.2C82.0041 356.067 82.0841 355.947 82.1641 355.84C82.2441 355.733 82.3241 355.627 82.4041 355.52C82.4574 355.44 82.4974 355.373 82.5241 355.32C82.5774 355.24 82.6307 355.173 82.6841 355.12C83.0041 354.64 83.2841 354.253 83.5241 353.96C83.5774 353.907 83.6041 353.867 83.6041 353.84C83.6307 353.787 83.6707 353.733 83.7241 353.68C83.7774 353.573 83.8307 353.507 83.8841 353.48L83.9641 353.36C84.0707 353.227 84.1641 353.107 84.2441 353C84.3241 352.867 84.4041 352.733 84.4841 352.6C84.6707 352.307 84.8307 352.04 84.9641 351.8C85.1241 351.533 85.2707 351.28 85.4041 351.04C85.5641 350.747 85.7241 350.467 85.8841 350.2C86.0441 349.907 86.2307 349.627 86.4441 349.36C86.5774 349.147 86.7107 348.933 86.8441 348.72C87.0041 348.507 87.1507 348.293 87.2841 348.08L87.4441 347.84C87.6307 347.547 87.7641 347.293 87.8441 347.08C87.9507 346.84 88.0174 346.573 88.0441 346.28C88.0974 345.853 88.1241 345.44 88.1241 345.04C88.1241 344.613 88.1241 344.16 88.1241 343.68V336.32C88.1241 336.053 88.1241 335.8 88.1241 335.56C88.1241 335.32 88.1374 335.067 88.1641 334.8C88.1641 334.507 88.1907 334.213 88.2441 333.92C88.2974 333.627 88.3641 333.36 88.4441 333.12C88.5774 332.773 88.7507 332.427 88.9641 332.08C89.0974 331.867 89.2841 331.707 89.5241 331.6C89.7907 331.493 90.0707 331.413 90.3641 331.36L90.4441 331.32C90.8974 331.187 91.3774 331.213 91.8841 331.4C92.1507 331.507 92.3507 331.627 92.4841 331.76C92.6174 331.867 92.7241 332.013 92.8041 332.2C92.8841 332.387 92.9641 332.587 93.0441 332.8C93.2841 333.307 93.4441 333.96 93.5241 334.76C93.5774 335.32 93.6174 335.947 93.6441 336.64C93.6707 337.307 93.6974 337.987 93.7241 338.68C93.7507 339.373 93.7641 340.067 93.7641 340.76C93.7641 341.427 93.7641 342.04 93.7641 342.6C93.7907 343.293 93.8041 343.987 93.8041 344.68C93.8041 345.347 93.8307 346.013 93.8841 346.68C93.9107 347.267 94.0441 347.813 94.2841 348.32C94.5507 348.827 94.8307 349.333 95.1241 349.84C95.4174 350.427 95.6974 351.013 95.9641 351.6C96.2574 352.16 96.5774 352.72 96.9241 353.28C97.0574 353.547 97.1907 353.813 97.3241 354.08C97.4841 354.32 97.6441 354.573 97.8041 354.84C97.8574 354.973 97.9107 355.093 97.9641 355.2C98.0441 355.307 98.1107 355.413 98.1641 355.52C98.2174 355.653 98.2841 355.8 98.3641 355.96C98.4441 356.093 98.5107 356.227 98.5641 356.36L98.6841 356.68L98.8041 356.92ZM109.484 343.44C109.617 343.44 109.737 343.453 109.844 343.48C109.977 343.507 110.111 343.52 110.244 343.52C110.377 343.547 110.524 343.573 110.684 343.6C110.844 343.6 111.004 343.613 111.164 343.64C111.457 343.693 111.751 343.8 112.044 343.96C112.337 344.093 112.551 344.307 112.684 344.6C112.871 344.893 112.964 345.24 112.964 345.64C112.964 345.853 112.951 346.053 112.924 346.24C112.924 346.4 112.897 346.587 112.844 346.8C112.791 347.013 112.724 347.24 112.644 347.48C112.591 347.72 112.471 347.907 112.284 348.04C111.911 348.307 111.551 348.48 111.204 348.56C110.777 348.613 110.257 348.627 109.644 348.6C109.031 348.573 108.511 348.573 108.084 348.6C108.057 348.6 108.031 348.613 108.004 348.64H107.964L107.924 348.68V348.8C107.924 349.12 107.924 349.507 107.924 349.96C107.924 350.387 107.924 350.84 107.924 351.32C107.924 351.773 107.924 352.227 107.924 352.68C107.924 353.107 107.924 353.493 107.924 353.84C107.977 355.227 107.977 356.587 107.924 357.92V358.48C107.924 358.827 107.911 359.213 107.884 359.64C107.884 360.04 107.857 360.44 107.804 360.84C107.751 361.24 107.657 361.627 107.524 362C107.391 362.347 107.204 362.64 106.964 362.88C106.644 363.253 106.217 363.44 105.684 363.44C105.684 363.44 105.657 363.427 105.604 363.4C104.964 363.373 104.444 363.187 104.044 362.84C103.671 362.493 103.377 362.067 103.164 361.56C102.977 361.053 102.857 360.533 102.804 360C102.751 359.44 102.724 358.947 102.724 358.52V334.76C102.724 334.733 102.724 334.613 102.724 334.4C102.724 334.16 102.751 333.893 102.804 333.6C102.857 333.28 102.937 332.96 103.044 332.64C103.177 332.293 103.351 332.013 103.564 331.8C103.751 331.613 104.017 331.48 104.364 331.4C104.737 331.293 105.071 331.24 105.364 331.24C105.951 331.24 106.444 331.44 106.844 331.84C107.217 332.213 107.431 332.613 107.484 333.04C107.564 333.44 107.631 333.867 107.684 334.32C107.711 334.427 107.724 334.587 107.724 334.8C107.777 335.253 107.804 335.72 107.804 336.2C107.831 336.68 107.857 337.16 107.884 337.64C107.884 337.933 107.884 338.227 107.884 338.52C107.911 338.787 107.924 339.067 107.924 339.36C107.897 339.52 107.884 339.68 107.884 339.84C107.911 339.973 107.924 340.107 107.924 340.24V342.48C107.924 342.613 107.924 342.76 107.924 342.92C107.924 343.08 107.951 343.227 108.004 343.36C108.004 343.387 108.137 343.4 108.404 343.4C108.671 343.4 108.817 343.4 108.844 343.4C109.084 343.453 109.271 343.467 109.404 343.44H109.484ZM130.118 336.48H128.878C128.664 336.48 128.451 336.467 128.238 336.44C128.051 336.413 127.838 336.4 127.598 336.4C127.438 336.347 127.278 336.293 127.118 336.24C126.958 336.187 126.771 336.093 126.558 335.96C126.398 335.88 126.251 335.76 126.118 335.6C126.011 335.44 125.891 335.253 125.758 335.04C125.411 334.453 125.411 333.867 125.758 333.28C126.078 332.8 126.531 332.44 127.118 332.2C127.411 332.093 127.731 332.013 128.078 331.96C128.424 331.88 128.784 331.84 129.158 331.84H135.198C135.971 331.84 136.744 331.853 137.518 331.88C138.291 331.88 139.064 331.88 139.838 331.88H148.518C148.784 331.88 149.064 331.893 149.358 331.92C149.651 331.92 149.958 331.947 150.278 332C150.918 332.08 151.438 332.347 151.838 332.8C152.211 333.173 152.398 333.693 152.398 334.36C152.398 335 152.158 335.533 151.678 335.96C151.624 336.013 151.544 336.067 151.438 336.12C151.358 336.147 151.291 336.173 151.238 336.2C150.704 336.413 150.144 336.48 149.558 336.4C149.264 336.4 148.971 336.4 148.678 336.4C148.384 336.4 148.131 336.427 147.918 336.48V337.08C147.918 337.267 147.918 337.453 147.918 337.64C147.918 337.8 147.931 337.987 147.958 338.2V339.84H149.238C149.371 339.893 149.504 339.933 149.638 339.96C149.798 339.96 149.944 339.987 150.078 340.04H150.518C150.891 340.093 151.184 340.16 151.398 340.24C151.638 340.32 151.864 340.427 152.078 340.56C152.344 340.667 152.451 341.173 152.398 342.08C152.398 342.373 152.358 342.64 152.278 342.88C152.198 343.12 152.091 343.307 151.958 343.44C151.878 343.6 151.758 343.747 151.598 343.88C151.438 343.987 151.278 344.067 151.118 344.12C150.958 344.227 150.771 344.293 150.558 344.32C150.344 344.32 150.131 344.32 149.918 344.32H141.158C141.211 344.453 141.238 344.627 141.238 344.84C141.264 345.053 141.278 345.28 141.278 345.52V346.96H143.678C144.104 346.907 144.531 346.88 144.958 346.88C145.411 346.88 145.851 346.88 146.278 346.88H148.758C149.131 346.88 149.478 346.893 149.798 346.92C150.118 346.947 150.438 346.96 150.758 346.96C150.998 346.96 151.211 346.987 151.398 347.04C151.611 347.067 151.864 347.12 152.158 347.2C152.584 347.333 152.998 347.507 153.398 347.72C153.771 348.04 153.958 348.453 153.958 348.96C153.958 349.12 153.944 349.267 153.918 349.4C153.891 349.533 153.864 349.667 153.838 349.8C153.784 349.96 153.718 350.093 153.638 350.2C153.558 350.28 153.478 350.373 153.398 350.48C153.318 350.613 153.198 350.707 153.038 350.76C152.878 350.813 152.718 350.893 152.558 351C152.371 351.053 152.211 351.093 152.078 351.12C151.944 351.12 151.784 351.12 151.598 351.12C151.438 351.12 151.291 351.147 151.158 351.2C151.051 351.227 150.931 351.24 150.798 351.24H129.038C128.451 351.32 127.838 351.32 127.198 351.24C126.558 351.24 125.998 351.04 125.518 350.64C124.878 350.24 124.558 349.72 124.558 349.08C124.558 348.733 124.678 348.373 124.918 348C125.131 347.707 125.478 347.453 125.958 347.24C126.251 347.133 126.531 347.067 126.798 347.04C127.091 346.987 127.358 346.96 127.598 346.96H129.518C129.811 346.96 130.091 346.947 130.358 346.92C130.651 346.893 130.918 346.88 131.158 346.88H132.518C132.731 346.88 132.944 346.88 133.158 346.88C133.398 346.88 133.651 346.907 133.918 346.96H135.558V344.6V344.32H129.318C129.184 344.32 129.011 344.307 128.798 344.28C128.584 344.227 128.384 344.2 128.198 344.2C127.958 344.147 127.744 344.093 127.558 344.04C127.371 343.987 127.198 343.933 127.038 343.88C126.691 343.72 126.344 343.48 125.998 343.16C125.731 342.893 125.598 342.547 125.598 342.12C125.518 341.453 125.638 341.013 125.958 340.8C126.091 340.613 126.264 340.48 126.478 340.4C126.718 340.32 126.958 340.213 127.198 340.08C127.411 340.053 127.651 340.027 127.918 340C128.184 339.973 128.464 339.987 128.758 340.04C129.051 340.04 129.318 340.04 129.558 340.04C129.798 340.04 130.011 340.013 130.198 339.96C130.198 339.72 130.198 339.453 130.198 339.16C130.198 338.84 130.171 338.52 130.118 338.2V336.48ZM151.038 358.08C151.171 358.08 151.278 358.107 151.358 358.16C151.464 358.16 151.544 358.187 151.598 358.24C151.678 358.293 151.758 358.347 151.838 358.4C151.998 358.453 152.118 358.533 152.198 358.64C152.304 358.72 152.384 358.827 152.438 358.96C152.544 359.013 152.611 359.093 152.638 359.2C152.691 359.28 152.744 359.387 152.798 359.52C152.958 360.613 152.798 361.4 152.318 361.88C152.184 362.12 152.024 362.293 151.838 362.4C151.678 362.533 151.518 362.613 151.358 362.64C151.198 362.72 151.064 362.76 150.958 362.76H150.798H128.878C127.891 362.76 127.104 362.6 126.518 362.28C125.984 361.907 125.718 361.413 125.718 360.8V357.24C125.584 356.68 125.584 356.093 125.718 355.48C125.718 355.187 125.771 354.933 125.878 354.72C125.984 354.48 126.104 354.267 126.238 354.08C126.478 353.867 126.704 353.733 126.918 353.68C127.131 353.6 127.358 353.56 127.598 353.56H128.238C128.344 353.587 128.438 353.6 128.518 353.6C128.624 353.6 128.704 353.627 128.758 353.68C129.078 353.813 129.358 353.973 129.598 354.16C129.678 354.293 129.744 354.413 129.798 354.52C129.878 354.627 129.944 354.747 129.998 354.88C130.051 355.067 130.091 355.227 130.118 355.36C130.171 355.493 130.198 355.653 130.198 355.84C130.251 355.973 130.278 356.12 130.278 356.28C130.278 356.44 130.278 356.587 130.278 356.72C130.278 356.827 130.291 356.933 130.318 357.04C130.344 357.147 130.358 357.227 130.358 357.28C130.358 357.413 130.371 357.547 130.398 357.68C130.424 357.813 130.438 357.92 130.438 358C130.491 358 130.571 358.013 130.678 358.04C130.784 358.067 130.944 358.08 131.158 358.08C131.371 358.133 131.651 358.16 131.998 358.16C132.371 358.16 132.784 358.16 133.238 358.16C133.611 358.16 133.984 358.16 134.358 358.16C134.731 358.16 135.091 358.133 135.438 358.08H151.038ZM142.958 336.48H135.238C135.211 336.533 135.171 336.6 135.118 336.68C135.091 336.733 135.051 336.827 134.998 336.96V339.84H143.078L142.958 336.48ZM168.373 332.08C168.613 332.08 168.92 332.093 169.293 332.12C169.667 332.12 169.96 332.147 170.173 332.2C170.547 332.333 170.907 332.493 171.253 332.68C171.627 332.867 171.933 333.12 172.173 333.44C172.44 333.76 172.627 334.187 172.733 334.72C172.867 335.227 172.933 335.693 172.933 336.12C172.933 337.293 172.947 338.453 172.973 339.6C173.027 340.72 173.027 341.867 172.973 343.04C172.947 343.387 172.933 343.773 172.933 344.2C172.96 344.6 172.96 345.013 172.933 345.44C172.907 345.867 172.853 346.28 172.773 346.68C172.72 347.053 172.6 347.4 172.413 347.72C172.2 348.093 171.92 348.387 171.573 348.6C171.227 348.813 170.853 348.947 170.453 349C170.08 349.053 169.707 349.013 169.333 348.88C168.987 348.747 168.707 348.493 168.493 348.12C168.147 347.587 167.933 346.987 167.853 346.32C167.8 345.627 167.773 344.933 167.773 344.24V340.8C167.773 339.867 167.733 339 167.653 338.2C167.627 337.88 167.547 337.653 167.413 337.52C167.28 337.36 167.12 337.253 166.933 337.2C166.747 337.147 166.533 337.12 166.293 337.12C166.053 337.12 165.813 337.12 165.573 337.12C165.307 337.12 165 337.12 164.653 337.12C164.307 337.12 163.947 337.12 163.573 337.12C163.227 337.12 162.893 337.12 162.573 337.12C162.253 337.12 161.973 337.12 161.733 337.12C160.853 337.12 160.013 337.107 159.213 337.08C158.44 337.053 157.573 336.973 156.613 336.84C156.24 336.813 155.96 336.68 155.773 336.44C155.613 336.2 155.493 335.92 155.413 335.6C155.36 335.28 155.333 334.947 155.333 334.6C155.36 334.253 155.4 333.96 155.453 333.72C155.507 333.427 155.6 333.187 155.733 333C155.867 332.813 156.04 332.64 156.253 332.48C156.547 332.267 156.867 332.16 157.213 332.16C157.56 332.16 157.893 332.133 158.213 332.08C158.347 332.08 158.667 332.08 159.173 332.08C159.68 332.053 160.28 332.04 160.973 332.04C161.667 332.04 162.413 332.04 163.213 332.04C164.04 332.04 164.8 332.04 165.493 332.04C166.213 332.04 166.827 332.053 167.333 332.08C167.867 332.08 168.213 332.08 168.373 332.08ZM178.773 342.48C178 342.427 177.307 342.387 176.693 342.36C176.08 342.307 175.6 342.013 175.253 341.48C175.093 341.213 175.013 340.88 175.013 340.48C175.013 340.08 175.04 339.733 175.093 339.44C175.173 339.147 175.32 338.907 175.533 338.72C175.747 338.507 176.12 338.333 176.653 338.2C176.76 338.173 176.96 338.16 177.253 338.16C177.547 338.133 177.853 338.107 178.173 338.08C178.52 338.053 178.84 338.04 179.133 338.04C179.427 338.013 179.627 338 179.733 338V334.56C179.707 334.267 179.693 333.973 179.693 333.68C179.72 333.387 179.773 333.093 179.853 332.8C179.907 332.587 179.96 332.387 180.013 332.2C180.067 332.013 180.187 331.813 180.373 331.6C180.587 331.333 180.88 331.147 181.253 331.04C181.653 330.933 182.08 330.907 182.533 330.96C183.387 331.093 183.933 331.427 184.173 331.96C184.333 332.28 184.427 332.68 184.453 333.16C184.507 333.613 184.533 333.893 184.533 334V347.04H184.493C184.493 347.067 184.48 347.16 184.453 347.32C184.427 347.48 184.373 347.68 184.293 347.92C184.213 348.133 184.093 348.36 183.933 348.6C183.773 348.84 183.56 349.04 183.293 349.2C182.92 349.413 182.547 349.52 182.173 349.52C181.72 349.52 181.28 349.373 180.853 349.08C180.533 348.867 180.307 348.6 180.173 348.28C180.013 347.987 179.907 347.693 179.853 347.4C179.8 347.107 179.76 346.813 179.733 346.52V342.48H178.773ZM159.333 362.72C159.307 362.72 159.267 362.693 159.213 362.64C158.947 362.427 158.76 362.12 158.653 361.72C158.573 361.293 158.533 360.933 158.533 360.64C158.507 360.16 158.467 359.68 158.413 359.2C158.387 358.72 158.373 358.253 158.373 357.8C158.373 357.107 158.373 356.427 158.373 355.76C158.373 355.093 158.44 354.427 158.573 353.76C158.653 353.333 158.787 353 158.973 352.76C159.16 352.493 159.453 352.28 159.853 352.12C160.6 351.827 161.347 351.68 162.093 351.68H180.933C181.44 351.707 181.96 351.747 182.493 351.8C183.027 351.853 183.533 351.987 184.013 352.2C184.547 352.413 184.893 352.773 185.053 353.28C185.24 353.76 185.36 354.267 185.413 354.8C185.44 355.253 185.453 355.787 185.453 356.4C185.48 356.987 185.48 357.587 185.453 358.2C185.427 358.813 185.387 359.427 185.333 360.04C185.28 360.627 185.187 361.16 185.053 361.64C184.973 361.933 184.88 362.187 184.773 362.4C184.667 362.64 184.453 362.813 184.133 362.92C183.84 363.027 183.533 363.093 183.213 363.12C182.92 363.147 182.627 363.16 182.333 363.16L161.493 363.08C161.147 363.053 160.773 363.04 160.373 363.04C159.973 363.04 159.627 362.933 159.333 362.72ZM163.133 358.04C163.133 358.173 163.133 358.307 163.133 358.44C163.16 358.547 163.213 358.627 163.293 358.68C163.347 358.733 163.427 358.773 163.533 358.8C163.667 358.8 163.8 358.8 163.933 358.8C164.067 358.8 164.227 358.787 164.413 358.76H176.933C177.307 358.787 177.667 358.813 178.013 358.84C178.307 358.867 178.613 358.88 178.933 358.88C179.253 358.88 179.547 358.853 179.813 358.8C180.08 358.773 180.24 358.707 180.293 358.6C180.347 358.467 180.387 358.28 180.413 358.04C180.44 357.827 180.453 357.587 180.453 357.32C180.453 357.027 180.373 356.773 180.213 356.56C180.027 356.347 179.76 356.24 179.413 356.24C179.093 356.213 178.8 356.213 178.533 356.24H167.413C166.827 356.187 166.253 356.173 165.693 356.2C165.133 356.2 164.56 356.213 163.973 356.24C163.76 356.24 163.587 356.253 163.453 356.28C163.347 356.28 163.267 356.4 163.213 356.64C163.16 356.827 163.133 357.013 163.133 357.2C163.133 357.36 163.133 357.52 163.133 357.68C163.16 357.733 163.16 357.787 163.133 357.84C163.133 357.893 163.133 357.96 163.133 358.04ZM205.601 356.92C205.681 357.053 205.748 357.2 205.801 357.36C205.881 357.493 205.948 357.653 206.001 357.84C206.081 358.133 206.134 358.453 206.161 358.8C206.188 359.147 206.108 359.507 205.921 359.88C205.494 360.707 204.908 361.147 204.161 361.2H204.121C203.641 361.2 203.214 361.04 202.841 360.72C202.494 360.4 202.121 360.013 201.721 359.56C201.321 359.133 200.948 358.693 200.601 358.24C200.254 357.787 199.948 357.387 199.681 357.04C199.654 356.987 199.614 356.933 199.561 356.88C199.534 356.8 199.494 356.707 199.441 356.6C198.774 355.587 198.281 354.893 197.961 354.52C197.641 354.147 197.454 353.947 197.401 353.92C197.348 353.973 197.214 354.12 197.001 354.36C196.814 354.573 196.694 354.707 196.641 354.76C196.588 354.84 196.534 354.92 196.481 355C196.428 355.053 196.374 355.107 196.321 355.16C196.081 355.427 195.881 355.707 195.721 356C195.588 356.267 195.414 356.547 195.201 356.84C194.988 357.133 194.761 357.413 194.521 357.68C194.308 357.947 194.081 358.213 193.841 358.48C193.734 358.587 193.628 358.72 193.521 358.88C193.121 359.333 192.694 359.773 192.241 360.2C191.814 360.627 191.308 360.947 190.721 361.16C190.481 361.267 190.214 361.32 189.921 361.32C189.308 361.32 188.761 361.08 188.281 360.6C187.828 360.147 187.601 359.587 187.601 358.92C187.628 358.44 187.748 357.987 187.961 357.56C188.201 357.133 188.428 356.733 188.641 356.36L188.721 356.2C188.801 356.067 188.881 355.947 188.961 355.84C189.041 355.733 189.121 355.627 189.201 355.52C189.254 355.44 189.294 355.373 189.321 355.32C189.374 355.24 189.428 355.173 189.481 355.12C189.801 354.64 190.081 354.253 190.321 353.96C190.374 353.907 190.401 353.867 190.401 353.84C190.428 353.787 190.468 353.733 190.521 353.68C190.574 353.573 190.628 353.507 190.681 353.48L190.761 353.36C190.868 353.227 190.961 353.107 191.041 353C191.121 352.867 191.201 352.733 191.281 352.6C191.468 352.307 191.628 352.04 191.761 351.8C191.921 351.533 192.068 351.28 192.201 351.04C192.361 350.747 192.521 350.467 192.681 350.2C192.841 349.907 193.028 349.627 193.241 349.36C193.374 349.147 193.508 348.933 193.641 348.72C193.801 348.507 193.948 348.293 194.081 348.08L194.241 347.84C194.428 347.547 194.561 347.293 194.641 347.08C194.748 346.84 194.814 346.573 194.841 346.28C194.894 345.853 194.921 345.44 194.921 345.04C194.921 344.613 194.921 344.16 194.921 343.68V336.32C194.921 336.053 194.921 335.8 194.921 335.56C194.921 335.32 194.934 335.067 194.961 334.8C194.961 334.507 194.988 334.213 195.041 333.92C195.094 333.627 195.161 333.36 195.241 333.12C195.374 332.773 195.548 332.427 195.761 332.08C195.894 331.867 196.081 331.707 196.321 331.6C196.588 331.493 196.868 331.413 197.161 331.36L197.241 331.32C197.694 331.187 198.174 331.213 198.681 331.4C198.948 331.507 199.148 331.627 199.281 331.76C199.414 331.867 199.521 332.013 199.601 332.2C199.681 332.387 199.761 332.587 199.841 332.8C200.081 333.307 200.241 333.96 200.321 334.76C200.374 335.32 200.414 335.947 200.441 336.64C200.468 337.307 200.494 337.987 200.521 338.68C200.548 339.373 200.561 340.067 200.561 340.76C200.561 341.427 200.561 342.04 200.561 342.6C200.588 343.293 200.601 343.987 200.601 344.68C200.601 345.347 200.628 346.013 200.681 346.68C200.708 347.267 200.841 347.813 201.081 348.32C201.348 348.827 201.628 349.333 201.921 349.84C202.214 350.427 202.494 351.013 202.761 351.6C203.054 352.16 203.374 352.72 203.721 353.28C203.854 353.547 203.988 353.813 204.121 354.08C204.281 354.32 204.441 354.573 204.601 354.84C204.654 354.973 204.708 355.093 204.761 355.2C204.841 355.307 204.908 355.413 204.961 355.52C205.014 355.653 205.081 355.8 205.161 355.96C205.241 356.093 205.308 356.227 205.361 356.36L205.481 356.68L205.601 356.92ZM216.281 343.44C216.414 343.44 216.534 343.453 216.641 343.48C216.774 343.507 216.908 343.52 217.041 343.52C217.174 343.547 217.321 343.573 217.481 343.6C217.641 343.6 217.801 343.613 217.961 343.64C218.254 343.693 218.548 343.8 218.841 343.96C219.134 344.093 219.348 344.307 219.481 344.6C219.668 344.893 219.761 345.24 219.761 345.64C219.761 345.853 219.748 346.053 219.721 346.24C219.721 346.4 219.694 346.587 219.641 346.8C219.588 347.013 219.521 347.24 219.441 347.48C219.388 347.72 219.268 347.907 219.081 348.04C218.708 348.307 218.348 348.48 218.001 348.56C217.574 348.613 217.054 348.627 216.441 348.6C215.828 348.573 215.308 348.573 214.881 348.6C214.854 348.6 214.828 348.613 214.801 348.64H214.761L214.721 348.68V348.8C214.721 349.12 214.721 349.507 214.721 349.96C214.721 350.387 214.721 350.84 214.721 351.32C214.721 351.773 214.721 352.227 214.721 352.68C214.721 353.107 214.721 353.493 214.721 353.84C214.774 355.227 214.774 356.587 214.721 357.92V358.48C214.721 358.827 214.708 359.213 214.681 359.64C214.681 360.04 214.654 360.44 214.601 360.84C214.548 361.24 214.454 361.627 214.321 362C214.188 362.347 214.001 362.64 213.761 362.88C213.441 363.253 213.014 363.44 212.481 363.44C212.481 363.44 212.454 363.427 212.401 363.4C211.761 363.373 211.241 363.187 210.841 362.84C210.468 362.493 210.174 362.067 209.961 361.56C209.774 361.053 209.654 360.533 209.601 360C209.548 359.44 209.521 358.947 209.521 358.52V334.76C209.521 334.733 209.521 334.613 209.521 334.4C209.521 334.16 209.548 333.893 209.601 333.6C209.654 333.28 209.734 332.96 209.841 332.64C209.974 332.293 210.148 332.013 210.361 331.8C210.548 331.613 210.814 331.48 211.161 331.4C211.534 331.293 211.868 331.24 212.161 331.24C212.748 331.24 213.241 331.44 213.641 331.84C214.014 332.213 214.228 332.613 214.281 333.04C214.361 333.44 214.428 333.867 214.481 334.32C214.508 334.427 214.521 334.587 214.521 334.8C214.574 335.253 214.601 335.72 214.601 336.2C214.628 336.68 214.654 337.16 214.681 337.64C214.681 337.933 214.681 338.227 214.681 338.52C214.708 338.787 214.721 339.067 214.721 339.36C214.694 339.52 214.681 339.68 214.681 339.84C214.708 339.973 214.721 340.107 214.721 340.24V342.48C214.721 342.613 214.721 342.76 214.721 342.92C214.721 343.08 214.748 343.227 214.801 343.36C214.801 343.387 214.934 343.4 215.201 343.4C215.468 343.4 215.614 343.4 215.641 343.4C215.881 343.453 216.068 343.467 216.201 343.44H216.281ZM247.804 360C248.231 360.053 248.604 360.16 248.924 360.32C249.244 360.48 249.471 360.773 249.604 361.2C249.924 362.16 249.577 362.84 248.564 363.24C248.244 363.373 247.924 363.453 247.604 363.48C247.284 363.507 246.977 363.52 246.684 363.52H228.084C227.551 363.52 226.991 363.507 226.404 363.48C225.844 363.48 225.271 363.467 224.684 363.44C224.124 363.413 223.657 363.213 223.284 362.84C222.911 362.467 222.697 361.973 222.644 361.36L222.524 358.56C222.497 358.267 222.497 357.92 222.524 357.52C222.551 357.12 222.684 356.787 222.924 356.52C223.297 356.12 223.791 355.867 224.404 355.76C225.044 355.653 225.657 355.6 226.244 355.6C226.617 355.6 227.231 355.6 228.084 355.6C228.964 355.6 230.151 355.613 231.644 355.64C233.137 355.64 234.977 355.64 237.164 355.64C239.377 355.64 242.004 355.64 245.044 355.64V354.2H225.364C225.097 354.2 224.857 354.2 224.644 354.2C224.431 354.2 224.217 354.173 224.004 354.12C223.764 354.067 223.551 354.013 223.364 353.96C223.177 353.907 223.017 353.773 222.884 353.56C222.511 353 222.417 352.427 222.604 351.84C222.684 351.627 222.804 351.467 222.964 351.36C223.124 351.227 223.311 351.12 223.524 351.04C223.737 350.96 223.937 350.907 224.124 350.88C224.337 350.853 224.524 350.827 224.684 350.8C225.084 350.72 225.497 350.68 225.924 350.68C226.324 350.68 226.751 350.68 227.204 350.68C227.657 350.68 228.204 350.68 228.844 350.68C229.511 350.68 230.297 350.693 231.204 350.72C232.111 350.72 233.217 350.72 234.524 350.72C235.857 350.72 237.404 350.72 239.164 350.72C240.951 350.72 243.044 350.72 245.444 350.72C246.804 350.72 247.844 350.933 248.564 351.36C249.284 351.76 249.644 352.427 249.644 353.36V356.2C249.644 356.573 249.551 356.947 249.364 357.32C249.204 357.667 248.911 357.96 248.484 358.2C248.137 358.413 247.791 358.533 247.444 358.56C247.097 358.56 246.751 358.56 246.404 358.56H227.444V360H247.804ZM228.204 339.88C228.577 339.88 229.164 339.893 229.964 339.92C230.764 339.92 231.631 339.92 232.564 339.92C233.497 339.92 234.417 339.92 235.324 339.92C236.231 339.893 236.991 339.88 237.604 339.88H247.324C247.751 339.933 248.124 340.053 248.444 340.24C248.764 340.4 248.991 340.68 249.124 341.08C249.417 342.04 249.071 342.72 248.084 343.12C247.764 343.253 247.431 343.333 247.084 343.36C246.764 343.387 246.457 343.4 246.164 343.4H228.884C228.351 343.4 227.791 343.4 227.204 343.4C226.644 343.373 226.071 343.347 225.484 343.32C224.924 343.293 224.444 343.093 224.044 342.72C223.671 342.347 223.457 341.853 223.404 341.24C223.351 340.787 223.311 340.293 223.284 339.76C223.284 339.227 223.284 338.773 223.284 338.4C223.284 338.107 223.297 337.76 223.324 337.36C223.351 336.96 223.484 336.627 223.724 336.36C224.097 335.96 224.564 335.707 225.124 335.6C225.711 335.493 226.297 335.44 226.884 335.44C227.044 335.44 227.204 335.44 227.364 335.44C227.551 335.44 227.711 335.453 227.844 335.48H244.564V334.16H226.164C225.871 334.16 225.617 334.16 225.404 334.16C225.217 334.16 225.017 334.133 224.804 334.08C224.564 334.027 224.337 333.973 224.124 333.92C223.937 333.867 223.777 333.733 223.644 333.52C223.297 332.987 223.217 332.413 223.404 331.8C223.537 331.373 223.831 331.107 224.284 331C224.764 330.893 225.151 330.813 225.444 330.76C225.871 330.68 226.297 330.64 226.724 330.64C227.177 330.64 227.751 330.653 228.444 330.68C229.137 330.68 229.871 330.68 230.644 330.68C231.444 330.68 232.217 330.68 232.964 330.68C233.737 330.68 234.431 330.68 235.044 330.68H244.964C246.324 330.68 247.364 330.893 248.084 331.32C248.804 331.72 249.164 332.387 249.164 333.32V336.04C249.164 336.413 249.071 336.787 248.884 337.16C248.724 337.507 248.431 337.8 248.004 338.04C247.657 338.253 247.231 338.373 246.724 338.4C246.244 338.4 245.857 338.4 245.564 338.4H228.204V339.88ZM224.364 345.08C224.791 345.027 225.217 345.027 225.644 345.08C226.097 345.107 226.564 345.107 227.044 345.08C228.511 345.027 229.924 345.013 231.284 345.04C232.671 345.067 234.177 345.08 235.804 345.08C237.591 345.08 239.404 345.067 241.244 345.04C243.084 345.013 244.964 345.027 246.884 345.08H247.084C247.644 345.08 248.191 345.093 248.724 345.12C249.257 345.12 249.791 345.2 250.324 345.36C250.724 345.493 251.031 345.747 251.244 346.12C251.457 346.467 251.564 346.813 251.564 347.16C251.564 347.72 251.311 348.2 250.804 348.6C250.351 348.92 249.817 349.093 249.204 349.12C248.617 349.147 248.044 349.147 247.484 349.12H224.284C224.284 349.12 224.164 349.12 223.924 349.12C223.711 349.12 223.457 349.107 223.164 349.08C222.871 349.027 222.564 348.96 222.244 348.88C221.924 348.773 221.671 348.627 221.484 348.44C221.297 348.307 221.164 348.093 221.084 347.8C221.004 347.507 220.964 347.253 220.964 347.04C220.964 346.533 221.151 346.133 221.524 345.84C221.871 345.547 222.231 345.36 222.604 345.28C223.004 345.173 223.431 345.107 223.884 345.08C223.964 345.053 224.044 345.053 224.124 345.08C224.204 345.08 224.284 345.08 224.364 345.08ZM293.062 332.36C293.142 332.547 293.209 332.827 293.262 333.2C293.316 333.573 293.356 333.96 293.382 334.36C293.409 334.733 293.422 335.08 293.422 335.4C293.422 335.72 293.422 335.907 293.422 335.96V349.76C293.422 349.787 293.409 349.893 293.382 350.08C293.356 350.24 293.289 350.44 293.182 350.68C293.102 350.92 292.969 351.16 292.782 351.4C292.622 351.64 292.409 351.84 292.142 352C291.769 352.24 291.382 352.36 290.982 352.36C290.449 352.36 289.982 352.2 289.582 351.88C289.262 351.693 289.022 351.427 288.862 351.08C288.676 350.76 288.556 350.44 288.502 350.12C288.449 349.8 288.409 349.493 288.382 349.2V348.04H288.262C287.862 348.013 287.436 348 286.982 348C286.556 347.973 286.129 347.947 285.702 347.92C285.302 347.867 284.929 347.787 284.582 347.68C284.236 347.547 283.969 347.373 283.782 347.16C283.756 347.24 283.689 347.36 283.582 347.52C283.342 347.813 283.062 348.027 282.742 348.16C282.449 348.267 282.129 348.347 281.782 348.4C281.462 348.453 281.129 348.48 280.782 348.48C280.436 348.453 280.102 348.44 279.782 348.44H267.302C266.769 348.44 266.209 348.36 265.622 348.2C265.036 348.04 264.636 347.693 264.422 347.16C264.289 346.787 264.236 346.333 264.262 345.8C264.316 345.267 264.502 344.867 264.822 344.6C265.009 344.413 265.236 344.307 265.502 344.28C265.769 344.253 266.022 344.24 266.262 344.24C266.449 344.24 266.622 344.253 266.782 344.28C266.969 344.28 267.156 344.28 267.342 344.28C267.449 344.28 267.529 344.28 267.582 344.28C267.662 344.28 267.702 344.213 267.702 344.08C267.756 343.787 267.769 343.507 267.742 343.24C267.716 342.947 267.702 342.653 267.702 342.36V339.44C267.702 339.147 267.702 338.853 267.702 338.56C267.729 338.24 267.742 337.933 267.742 337.64C267.742 337.613 267.742 337.547 267.742 337.44C267.742 337.307 267.742 337.187 267.742 337.08C267.742 336.947 267.742 336.827 267.742 336.72C267.742 336.613 267.742 336.56 267.742 336.56C267.529 336.56 267.316 336.56 267.102 336.56C266.916 336.533 266.716 336.507 266.502 336.48C265.996 336.427 265.582 336.293 265.262 336.08C264.942 335.84 264.729 335.453 264.622 334.92C264.569 334.653 264.542 334.387 264.542 334.12C264.542 333.827 264.609 333.547 264.742 333.28C264.956 332.88 265.302 332.613 265.782 332.48C266.129 332.347 266.476 332.307 266.822 332.36C267.169 332.387 267.516 332.387 267.862 332.36C268.316 332.333 268.742 332.32 269.142 332.32C269.569 332.293 270.009 332.28 270.462 332.28C270.889 332.253 271.302 332.24 271.702 332.24C272.102 332.24 272.529 332.24 272.982 332.24H280.182C280.556 332.24 280.916 332.267 281.262 332.32C281.636 332.347 281.996 332.427 282.342 332.56C282.929 332.747 283.329 333.147 283.542 333.76C283.729 334.16 283.782 334.573 283.702 335C283.622 335.4 283.396 335.72 283.022 335.96C282.542 336.28 282.009 336.427 281.422 336.4C280.862 336.373 280.316 336.387 279.782 336.44C279.809 336.787 279.822 337.307 279.822 338C279.849 338.693 279.876 339.427 279.902 340.2C279.929 340.973 279.942 341.72 279.942 342.44C279.969 343.16 279.982 343.733 279.982 344.16C280.249 344.16 280.542 344.16 280.862 344.16C281.182 344.133 281.489 344.133 281.782 344.16C282.102 344.16 282.396 344.2 282.662 344.28C282.956 344.333 283.222 344.453 283.462 344.64C283.462 344.64 283.489 344.667 283.542 344.72C283.622 344.427 283.782 344.187 284.022 344C284.262 343.813 284.649 343.653 285.182 343.52C285.289 343.493 285.489 343.48 285.782 343.48C286.102 343.453 286.422 343.427 286.742 343.4C287.089 343.373 287.409 343.36 287.702 343.36C288.022 343.333 288.249 343.32 288.382 343.32V340.72C287.982 340.72 287.529 340.733 287.022 340.76C286.542 340.76 286.076 340.747 285.622 340.72C285.196 340.667 284.796 340.587 284.422 340.48C284.076 340.373 283.822 340.187 283.662 339.92C283.582 339.787 283.516 339.613 283.462 339.4C283.436 339.187 283.409 338.973 283.382 338.76C283.382 338.52 283.396 338.293 283.422 338.08C283.449 337.867 283.476 337.68 283.502 337.52C283.582 337.227 283.742 336.973 283.982 336.76C284.222 336.547 284.622 336.373 285.182 336.24C285.262 336.213 285.422 336.2 285.662 336.2C285.929 336.173 286.222 336.16 286.542 336.16C286.862 336.133 287.182 336.12 287.502 336.12C287.849 336.093 288.142 336.08 288.382 336.08C288.382 335.973 288.382 335.787 288.382 335.52C288.382 335.253 288.382 334.973 288.382 334.68C288.382 334.387 288.396 334.12 288.422 333.88C288.449 333.613 288.476 333.427 288.502 333.32C288.582 333.107 288.649 332.893 288.702 332.68C288.756 332.467 288.876 332.253 289.062 332.04C289.302 331.773 289.622 331.587 290.022 331.48C290.449 331.347 290.902 331.307 291.382 331.36C292.236 331.493 292.796 331.827 293.062 332.36ZM292.542 358.4C292.542 358.4 292.622 358.427 292.782 358.48C292.969 358.533 293.169 358.627 293.382 358.76C293.596 358.867 293.796 359.027 293.982 359.24C294.169 359.427 294.289 359.653 294.342 359.92C294.476 360.933 294.302 361.72 293.822 362.28C293.502 362.653 293.156 362.88 292.782 362.96C292.409 363.04 292.209 363.08 292.182 363.08H271.342C270.249 363.08 269.396 362.907 268.782 362.56C268.169 362.24 267.862 361.773 267.862 361.16V355.6C267.862 355.44 267.849 355.24 267.822 355C267.822 354.76 267.822 354.507 267.822 354.24C267.822 353.947 267.822 353.68 267.822 353.44C267.849 353.2 267.862 353 267.862 352.84C267.916 352.28 268.182 351.827 268.662 351.48C269.142 351.133 269.689 350.96 270.302 350.96C270.436 350.96 270.596 350.973 270.782 351C270.996 351 271.169 351.027 271.302 351.08C271.649 351.187 271.929 351.373 272.142 351.64C272.356 351.88 272.516 352.16 272.622 352.48C272.729 352.8 272.796 353.147 272.822 353.52C272.849 353.867 272.876 354.187 272.902 354.48C272.902 354.587 272.902 354.84 272.902 355.24C272.902 355.613 272.902 356.027 272.902 356.48C272.902 356.907 272.902 357.307 272.902 357.68C272.902 358.027 272.902 358.24 272.902 358.32C272.982 358.347 273.196 358.387 273.542 358.44C273.916 358.467 274.596 358.48 275.582 358.48C276.436 358.48 277.196 358.467 277.862 358.44C278.529 358.413 278.876 358.4 278.902 358.4H292.542ZM275.582 343.8C275.609 343.64 275.609 343.48 275.582 343.32C275.582 343.133 275.596 342.96 275.622 342.8V339.52C275.622 339.147 275.622 338.787 275.622 338.44C275.622 338.067 275.609 337.693 275.582 337.32C275.582 337.133 275.556 336.973 275.502 336.84C275.476 336.707 275.369 336.6 275.182 336.52C275.022 336.467 274.849 336.44 274.662 336.44C274.476 336.44 274.289 336.44 274.102 336.44C273.862 336.44 273.622 336.44 273.382 336.44C273.142 336.44 272.916 336.453 272.702 336.48C272.596 336.507 272.502 336.52 272.422 336.52C272.342 336.493 272.262 336.507 272.182 336.56C271.969 336.667 271.849 336.827 271.822 337.04C271.796 337.253 271.809 337.453 271.862 337.64C271.889 337.853 271.889 338.08 271.862 338.32C271.862 338.533 271.862 338.747 271.862 338.96V343.16C271.862 343.32 271.849 343.493 271.822 343.68C271.822 343.84 271.889 343.987 272.022 344.12C272.156 344.253 272.316 344.293 272.502 344.24C272.822 344.24 273.142 344.253 273.462 344.28C273.782 344.28 274.102 344.253 274.422 344.2C274.556 344.2 274.676 344.213 274.782 344.24C274.916 344.24 275.049 344.227 275.182 344.2C275.342 344.173 275.449 344.147 275.502 344.12C275.556 344.067 275.582 343.96 275.582 343.8ZM303.625 349.76C303.359 349.813 303.172 349.92 303.065 350.08C302.959 350.24 302.892 350.427 302.865 350.64C302.839 350.853 302.839 351.067 302.865 351.28C302.892 351.493 302.905 351.693 302.905 351.88C302.905 352.04 302.905 352.253 302.905 352.52C302.905 352.76 302.905 353.027 302.905 353.32C302.905 353.587 302.905 353.853 302.905 354.12C302.932 354.387 302.959 354.613 302.985 354.8C302.985 354.96 302.972 355.187 302.945 355.48C302.945 355.747 303.012 355.947 303.145 356.08C303.145 356.133 303.172 356.173 303.225 356.2C303.279 356.227 303.332 356.24 303.385 356.24C303.999 356.24 304.679 356.24 305.425 356.24C306.172 356.24 306.852 356.213 307.465 356.16C308.399 356.16 309.372 356.16 310.385 356.16C311.425 356.133 312.412 356.16 313.345 356.24C313.719 356.293 313.999 356.387 314.185 356.52C314.399 356.653 314.572 356.827 314.705 357.04C314.865 357.253 314.972 357.493 315.025 357.76C315.079 358 315.105 358.267 315.105 358.56C315.159 358.88 315.132 359.187 315.025 359.48C314.945 359.747 314.839 359.96 314.705 360.12C314.572 360.28 314.412 360.427 314.225 360.56C314.065 360.667 313.879 360.787 313.665 360.92C313.132 361.16 312.599 361.28 312.065 361.28C311.559 361.253 311.025 361.267 310.465 361.32C309.985 361.32 309.439 361.333 308.825 361.36C308.212 361.387 307.652 361.373 307.145 361.32C306.745 361.267 306.292 361.253 305.785 361.28C305.305 361.307 304.879 361.32 304.505 361.32C304.132 361.267 303.772 361.253 303.425 361.28C303.079 361.307 302.719 361.32 302.345 361.32C301.705 361.267 301.065 361.2 300.425 361.12C299.785 361.04 299.199 360.813 298.665 360.44C298.292 360.227 298.012 359.867 297.825 359.36C297.665 359.04 297.545 358.68 297.465 358.28C297.385 357.88 297.372 357.493 297.425 357.12C297.452 356.533 297.452 355.893 297.425 355.2C297.425 354.48 297.412 353.76 297.385 353.04C297.385 352.32 297.372 351.613 297.345 350.92C297.345 350.2 297.345 349.52 297.345 348.88C297.345 348.4 297.332 347.893 297.305 347.36C297.305 346.8 297.425 346.32 297.665 345.92C297.905 345.547 298.172 345.28 298.465 345.12C298.759 344.933 299.065 344.813 299.385 344.76C299.732 344.707 300.079 344.693 300.425 344.72C300.799 344.72 301.172 344.72 301.545 344.72H305.225C305.385 344.72 305.599 344.72 305.865 344.72C306.159 344.72 306.452 344.72 306.745 344.72C307.039 344.693 307.332 344.68 307.625 344.68C307.919 344.653 308.145 344.613 308.305 344.56C308.545 344.48 308.705 344.32 308.785 344.08C308.919 343.387 308.985 342.627 308.985 341.8C309.012 340.973 308.999 340.213 308.945 339.52C308.945 339.227 308.945 338.853 308.945 338.4C308.945 337.947 308.865 337.6 308.705 337.36C308.519 337.093 308.105 336.96 307.465 336.96L300.025 337.04C299.652 337.04 299.239 337 298.785 336.92C298.332 336.813 297.985 336.613 297.745 336.32C297.665 336.187 297.585 336.067 297.505 335.96C297.425 335.827 297.345 335.653 297.265 335.44C297.052 334.72 297.105 334.067 297.425 333.48C297.772 332.893 298.319 332.52 299.065 332.36C299.705 332.227 300.345 332.187 300.985 332.24C301.625 332.267 302.265 332.253 302.905 332.2H308.945C309.479 332.2 310.025 332.2 310.585 332.2C311.145 332.2 311.692 332.28 312.225 332.44C312.785 332.6 313.265 333 313.665 333.64C313.719 333.773 313.759 333.893 313.785 334C313.812 334.107 313.852 334.24 313.905 334.4C313.959 334.533 313.999 334.653 314.025 334.76C314.052 334.867 314.065 334.987 314.065 335.12C314.119 335.573 314.145 336.107 314.145 336.72C314.145 337.333 314.145 337.84 314.145 338.24C314.145 339.093 314.159 340 314.185 340.96C314.212 341.92 314.225 342.827 314.225 343.68C314.225 344.56 314.212 345.413 314.185 346.24C314.185 347.067 314.065 347.787 313.825 348.4C313.559 348.933 313.185 349.28 312.705 349.44C312.252 349.653 311.759 349.747 311.225 349.72C310.692 349.693 310.199 349.68 309.745 349.68C309.452 349.68 309.105 349.693 308.705 349.72C308.305 349.72 307.905 349.72 307.505 349.72C307.105 349.72 306.719 349.733 306.345 349.76C305.999 349.76 305.705 349.76 305.465 349.76C305.252 349.76 305.065 349.76 304.905 349.76C304.772 349.733 304.639 349.72 304.505 349.72C304.399 349.693 304.279 349.693 304.145 349.72C304.012 349.72 303.839 349.733 303.625 349.76ZM325.425 359.52C325.372 359.84 325.332 360.16 325.305 360.48C325.279 360.773 325.212 361.08 325.105 361.4C325.052 361.507 325.012 361.6 324.985 361.68C324.959 361.76 324.919 361.853 324.865 361.96C324.679 362.333 324.439 362.627 324.145 362.84C323.532 363.213 322.852 363.307 322.105 363.12C321.679 363.04 321.332 362.88 321.065 362.64C320.825 362.427 320.639 362.16 320.505 361.84C320.399 361.493 320.305 361.16 320.225 360.84C320.172 360.52 320.145 360.24 320.145 360C320.145 359.76 320.145 359.627 320.145 359.6V336.04C320.145 335.72 320.145 335.373 320.145 335C320.145 334.627 320.172 334.253 320.225 333.88C320.279 333.507 320.359 333.16 320.465 332.84C320.572 332.52 320.719 332.267 320.905 332.08C321.199 331.787 321.505 331.613 321.825 331.56C322.145 331.48 322.492 331.44 322.865 331.44C323.319 331.44 323.732 331.573 324.105 331.84C324.505 332.08 324.785 332.427 324.945 332.88C325.185 333.44 325.319 334.027 325.345 334.64C325.372 335.253 325.399 335.867 325.425 336.48V336.68C325.479 338.733 325.492 340.653 325.465 342.44C325.439 344.2 325.425 346.04 325.425 347.96V358.08C325.425 358.32 325.425 358.56 325.425 358.8C325.452 359.04 325.452 359.28 325.425 359.52ZM337.728 340.88C339.168 340.933 340.381 341.28 341.368 341.92C342.354 342.56 343.154 343.387 343.768 344.4C344.381 345.413 344.808 346.56 345.048 347.84C345.288 349.12 345.381 350.413 345.328 351.72C345.301 353.027 345.114 354.307 344.768 355.56C344.448 356.813 344.021 357.92 343.488 358.88C342.901 359.92 342.074 360.72 341.008 361.28C339.968 361.813 338.848 362.12 337.648 362.2C336.448 362.28 335.261 362.12 334.088 361.72C332.941 361.32 331.968 360.693 331.168 359.84C330.474 359.093 329.981 358.32 329.688 357.52C329.394 356.693 329.181 355.787 329.048 354.8C328.914 353.813 328.808 352.867 328.728 351.96C328.648 351.027 328.634 350.107 328.688 349.2C328.741 348.293 328.888 347.4 329.128 346.52C329.394 345.64 329.794 344.76 330.328 343.88C330.621 343.373 331.034 342.933 331.568 342.56C332.101 342.16 332.701 341.84 333.368 341.6C334.034 341.333 334.741 341.147 335.488 341.04C336.261 340.907 337.008 340.853 337.728 340.88ZM356.448 343.8C356.581 343.8 356.701 343.813 356.808 343.84C356.941 343.867 357.074 343.88 357.208 343.88C357.341 343.907 357.488 343.933 357.648 343.96C357.808 343.96 357.968 343.973 358.128 344C358.421 344.053 358.714 344.16 359.008 344.32C359.301 344.453 359.514 344.667 359.648 344.96C359.834 345.253 359.928 345.6 359.928 346C359.928 346.213 359.914 346.413 359.888 346.6C359.888 346.76 359.861 346.947 359.808 347.16C359.754 347.373 359.688 347.6 359.608 347.84C359.554 348.08 359.434 348.267 359.248 348.4C358.874 348.667 358.514 348.84 358.168 348.92C357.741 348.973 357.221 348.987 356.608 348.96C355.994 348.933 355.474 348.933 355.048 348.96C355.021 348.96 354.994 348.973 354.968 349H354.928L354.888 349.04V349.16C354.861 349.827 354.848 350.6 354.848 351.48C354.874 352.36 354.888 353.147 354.888 353.84C354.941 355.227 354.941 356.587 354.888 357.92V358.48C354.888 358.827 354.874 359.213 354.848 359.64C354.848 360.04 354.821 360.44 354.768 360.84C354.714 361.24 354.621 361.627 354.488 362C354.354 362.347 354.168 362.64 353.928 362.88C353.608 363.253 353.181 363.44 352.648 363.44C352.648 363.44 352.621 363.427 352.568 363.4C351.928 363.373 351.408 363.187 351.008 362.84C350.634 362.493 350.341 362.067 350.128 361.56C349.941 361.053 349.821 360.533 349.768 360C349.714 359.44 349.688 358.947 349.688 358.52V334.76C349.688 334.733 349.688 334.613 349.688 334.4C349.688 334.16 349.714 333.893 349.768 333.6C349.821 333.28 349.901 332.96 350.008 332.64C350.141 332.293 350.314 332.013 350.528 331.8C350.714 331.613 350.981 331.48 351.328 331.4C351.701 331.293 352.034 331.24 352.328 331.24C352.914 331.24 353.408 331.44 353.808 331.84C354.181 332.213 354.394 332.613 354.448 333.04C354.528 333.44 354.594 333.867 354.648 334.32C354.674 334.427 354.688 334.587 354.688 334.8C354.741 335.253 354.768 335.72 354.768 336.2C354.794 336.68 354.821 337.16 354.848 337.64C354.848 337.933 354.848 338.227 354.848 338.52C354.874 338.787 354.888 339.067 354.888 339.36C354.861 339.52 354.848 339.68 354.848 339.84C354.874 339.973 354.888 340.107 354.888 340.24V342.84C354.888 342.973 354.888 343.12 354.888 343.28C354.888 343.44 354.914 343.587 354.968 343.72C354.968 343.747 355.101 343.76 355.368 343.76C355.634 343.76 355.781 343.76 355.808 343.76C356.048 343.813 356.234 343.827 356.368 343.8H356.448ZM343.328 334.48C343.861 334.48 344.394 334.56 344.928 334.72C345.461 334.88 345.874 335.227 346.168 335.76C346.354 336.107 346.421 336.547 346.368 337.08C346.314 337.587 346.154 338.013 345.888 338.36C345.621 338.68 345.208 338.907 344.648 339.04C344.088 339.173 343.501 339.267 342.888 339.32C342.274 339.347 341.701 339.347 341.168 339.32C340.661 339.293 340.314 339.28 340.128 339.28C339.914 339.307 339.701 339.32 339.488 339.32C339.301 339.32 339.088 339.32 338.848 339.32H337.568C337.354 339.293 337.141 339.28 336.928 339.28C336.741 339.28 336.541 339.28 336.328 339.28L331.608 339.2C330.248 339.2 329.274 339.027 328.688 338.68C328.101 338.333 327.754 337.787 327.648 337.04C327.541 336.267 327.741 335.64 328.248 335.16C328.621 334.84 328.928 334.64 329.168 334.56C329.434 334.48 329.768 334.44 330.168 334.44C330.274 334.44 330.381 334.453 330.488 334.48C330.594 334.48 330.701 334.48 330.808 334.48H331.808C332.181 334.48 332.621 334.48 333.128 334.48C333.634 334.453 334.074 334.427 334.448 334.4C334.448 334.293 334.448 334.147 334.448 333.96C334.474 333.747 334.488 333.533 334.488 333.32C334.514 333.107 334.528 332.907 334.528 332.72C334.554 332.507 334.568 332.36 334.568 332.28C334.621 331.827 334.768 331.413 335.008 331.04C335.568 330.267 336.261 329.907 337.088 329.96C337.461 330.013 337.834 330.08 338.208 330.16C338.581 330.213 338.888 330.4 339.128 330.72C339.421 331.147 339.554 331.733 339.528 332.48C339.528 333.2 339.554 333.853 339.608 334.44H340.768C340.981 334.44 341.288 334.453 341.688 334.48C342.088 334.48 342.394 334.48 342.608 334.48H343.328ZM337.568 357.8C338.154 357.72 338.661 357.493 339.088 357.12C339.514 356.72 339.861 356.253 340.128 355.72C340.394 355.187 340.581 354.613 340.688 354C340.794 353.387 340.848 352.813 340.848 352.28C340.848 351.827 340.821 351.32 340.768 350.76C340.741 350.173 340.674 349.613 340.568 349.08C340.461 348.52 340.288 348.013 340.048 347.56C339.808 347.08 339.488 346.693 339.088 346.4C338.714 346.16 338.274 346.013 337.768 345.96C337.261 345.88 336.741 345.893 336.208 346C335.701 346.107 335.234 346.293 334.808 346.56C334.381 346.8 334.074 347.133 333.888 347.56C333.381 348.653 333.114 349.747 333.088 350.84C333.088 351.933 333.208 353.053 333.448 354.2C333.581 354.787 333.768 355.4 334.008 356.04C334.248 356.653 334.621 357.133 335.128 357.48C335.234 357.56 335.394 357.627 335.608 357.68C335.848 357.707 336.088 357.733 336.328 357.76C336.594 357.787 336.834 357.813 337.048 357.84C337.288 357.84 337.461 357.827 337.568 357.8ZM370.291 357.76C370.291 357.36 370.291 356.987 370.291 356.64C370.291 356.293 370.291 355.88 370.291 355.4C370.291 354.92 370.277 354.347 370.251 353.68C370.251 353.013 370.251 352.147 370.251 351.08C370.251 350.013 370.251 348.72 370.251 347.2C370.251 345.68 370.251 343.84 370.251 341.68C370.251 341.227 370.251 340.8 370.251 340.4C370.251 339.973 370.224 339.533 370.171 339.08C370.091 338.6 369.971 338.293 369.811 338.16C369.651 338.027 369.331 337.96 368.851 337.96C367.677 337.933 366.637 337.933 365.731 337.96C364.824 337.96 363.851 337.96 362.811 337.96C361.877 337.96 361.184 337.72 360.731 337.24C360.277 336.76 360.051 336.133 360.051 335.36C360.051 334.587 360.224 334 360.571 333.6C360.944 333.173 361.477 332.893 362.171 332.76C362.704 332.627 363.211 332.547 363.691 332.52C364.171 332.493 364.704 332.48 365.291 332.48H371.011C371.144 332.48 371.277 332.493 371.411 332.52C371.571 332.52 371.717 332.52 371.851 332.52C372.197 332.547 372.557 332.587 372.931 332.64C373.331 332.693 373.691 332.787 374.011 332.92C374.224 333 374.424 333.107 374.611 333.24C374.824 333.373 374.997 333.533 375.131 333.72C375.397 334.093 375.544 334.44 375.571 334.76C375.597 335.08 375.637 335.467 375.691 335.92C375.744 336.64 375.771 337.373 375.771 338.12C375.771 338.867 375.771 339.613 375.771 340.36V343.28H379.691V335.2C379.691 334.853 379.691 334.507 379.691 334.16C379.691 333.787 379.731 333.427 379.811 333.08C379.864 332.947 379.904 332.827 379.931 332.72C379.984 332.613 380.037 332.493 380.091 332.36C380.251 332.093 380.411 331.893 380.571 331.76C380.731 331.6 380.957 331.467 381.251 331.36C381.384 331.307 381.517 331.28 381.651 331.28C381.811 331.253 381.957 331.24 382.091 331.24C382.971 331.24 383.637 331.64 384.091 332.44C384.197 332.6 384.264 332.827 384.291 333.12C384.344 333.413 384.384 333.72 384.411 334.04C384.437 334.333 384.451 334.6 384.451 334.84C384.451 335.053 384.451 335.187 384.451 335.24V353.96V358.12C384.451 358.787 384.424 359.32 384.371 359.72C384.344 360.12 384.224 360.627 384.011 361.24C383.877 361.64 383.651 361.973 383.331 362.24C383.011 362.507 382.557 362.64 381.971 362.64C381.811 362.64 381.611 362.613 381.371 362.56C381.131 362.533 380.944 362.467 380.811 362.36C380.544 362.2 380.331 361.947 380.171 361.6C380.037 361.227 379.931 360.84 379.851 360.44C379.771 360.04 379.717 359.653 379.691 359.28C379.691 358.907 379.691 358.613 379.691 358.4V348.48L375.771 348.44V353.16C375.771 353.187 375.771 353.387 375.771 353.76C375.797 354.133 375.811 354.587 375.811 355.12C375.811 355.653 375.811 356.213 375.811 356.8C375.811 357.36 375.797 357.853 375.771 358.28C375.691 359.24 375.384 360.013 374.851 360.6C374.344 361.187 373.624 361.48 372.691 361.48C372.211 361.48 371.811 361.36 371.491 361.12C371.171 360.88 370.917 360.573 370.731 360.2C370.571 359.827 370.451 359.427 370.371 359C370.317 358.547 370.291 358.133 370.291 357.76ZM391.091 361.52C390.931 361.867 390.677 362.16 390.331 362.4C389.797 362.747 389.211 362.84 388.571 362.68C388.171 362.6 387.837 362.427 387.571 362.16C387.331 361.92 387.144 361.64 387.011 361.32C386.877 361 386.784 360.653 386.731 360.28C386.677 359.907 386.651 359.547 386.651 359.2V335.64C386.651 335.347 386.651 335.013 386.651 334.64C386.651 334.24 386.677 333.867 386.731 333.52C386.784 333.147 386.851 332.8 386.931 332.48C387.037 332.16 387.184 331.907 387.371 331.72C387.664 331.453 387.971 331.293 388.291 331.24C388.611 331.16 388.957 331.12 389.331 331.12C389.784 331.12 390.157 331.253 390.451 331.52C390.744 331.76 390.971 332.093 391.131 332.52C391.371 333.08 391.504 333.653 391.531 334.24C391.557 334.827 391.584 335.427 391.611 336.04V336.24C391.664 338.267 391.677 340.28 391.651 342.28C391.624 344.28 391.611 346.227 391.611 348.12V357.72C391.611 358.413 391.584 359.08 391.531 359.72C391.504 360.36 391.357 360.96 391.091 361.52ZM396.494 332.52C396.707 332.173 397 331.92 397.374 331.76C397.747 331.6 398.107 331.52 398.454 331.52C398.747 331.52 399.027 331.533 399.294 331.56C399.587 331.56 399.867 331.587 400.134 331.64C400.694 331.8 401.094 332.16 401.334 332.72C401.574 333.253 401.72 333.88 401.774 334.6C401.854 335.293 401.867 335.987 401.814 336.68C401.787 337.373 401.774 337.933 401.774 338.36V350.16C401.774 350.693 401.774 351.227 401.774 351.76C401.774 352.293 401.68 352.8 401.494 353.28C401.307 353.733 400.96 354.067 400.454 354.28C399.947 354.493 399.414 354.6 398.854 354.6C398.294 354.573 397.76 354.453 397.254 354.24C396.747 354 396.4 353.667 396.214 353.24C396.134 353 396.067 352.707 396.014 352.36C395.987 351.987 395.96 351.653 395.934 351.36C395.907 350.907 395.894 350.44 395.894 349.96C395.92 349.453 395.934 348.947 395.934 348.44V335.04C395.934 334.72 395.974 334.307 396.054 333.8C396.134 333.293 396.28 332.867 396.494 332.52ZM401.094 358.24C401.174 358.373 401.24 358.507 401.294 358.64C401.374 358.747 401.44 358.88 401.494 359.04C401.574 359.333 401.627 359.64 401.654 359.96C401.68 360.28 401.654 360.6 401.574 360.92C401.494 361.213 401.36 361.493 401.174 361.76C400.987 362.027 400.734 362.227 400.414 362.36C400.12 362.493 399.774 362.573 399.374 362.6C398.974 362.627 398.587 362.6 398.214 362.52C397.84 362.44 397.494 362.293 397.174 362.08C396.854 361.867 396.627 361.587 396.494 361.24C396.36 360.867 396.28 360.44 396.254 359.96C396.254 359.453 396.32 359.013 396.454 358.64C396.614 358.24 396.867 357.973 397.214 357.84C397.56 357.68 397.934 357.6 398.334 357.6C398.84 357.573 399.334 357.587 399.814 357.64C400.32 357.693 400.747 357.893 401.094 358.24Z" fill="white"/>
</svg>
