<svg width="23" height="25" viewBox="0 0 23 25" fill="none" xmlns="http://www.w3.org/2000/svg">
<path d="M0.63185 1.53191C0.831867 1.32243 1.06941 1.15624 1.33089 1.04285C1.59238 0.929458 1.87267 0.871094 2.15574 0.871094C2.4388 0.871094 2.7191 0.929458 2.98058 1.04285C3.24206 1.15624 3.4796 1.32243 3.67962 1.53191L11.5003 9.70814L19.321 1.53191C19.5211 1.32262 19.7587 1.1566 20.0202 1.04333C20.2816 0.930058 20.5619 0.871759 20.8449 0.871759C21.1279 0.871759 21.4081 0.930058 21.6696 1.04333C21.9311 1.1566 22.1687 1.32262 22.3688 1.53191C22.5689 1.74121 22.7276 1.98967 22.8359 2.26313C22.9443 2.53658 23 2.82967 23 3.12566C23 3.42165 22.9443 3.71473 22.8359 3.98819C22.7276 4.26165 22.5689 4.51011 22.3688 4.71941L14.551 12.8986L22.3688 21.0779C22.7729 21.5006 23 22.0739 23 22.6716C23 23.2694 22.7729 23.8427 22.3688 24.2654C21.9646 24.6881 21.4165 24.9255 20.8449 24.9255C20.2733 24.9255 19.7252 24.6881 19.321 24.2654L11.5003 16.0891L3.67962 24.2654C3.27546 24.6881 2.7273 24.9255 2.15574 24.9255C1.58417 24.9255 1.03601 24.6881 0.63185 24.2654C0.227691 23.8427 0.000636157 23.2694 0.000636157 22.6716C0.000636157 22.0739 0.227691 21.5006 0.63185 21.0779L8.44967 12.8986L0.63185 4.71941C0.431548 4.51022 0.272643 4.26179 0.164225 3.98832C0.0558058 3.71485 0 3.42171 0 3.12566C0 2.82961 0.0558058 2.53647 0.164225 2.263C0.272643 1.98953 0.431548 1.7411 0.63185 1.53191Z" fill="white"/>
</svg>
