<svg width="40" height="40" viewBox="0 0 40 40" fill="none" xmlns="http://www.w3.org/2000/svg">
<rect width="40" height="40" rx="20" fill="#8CC0E4"/>
<path d="M27.5459 25.954C27.7572 26.1653 27.876 26.452 27.876 26.7509C27.876 27.0497 27.7572 27.3364 27.5459 27.5477C27.3346 27.7591 27.0479 27.8778 26.749 27.8778C26.4501 27.8778 26.1635 27.7591 25.9521 27.5477L20 21.5937L14.0459 27.5459C13.8346 27.7572 13.5479 27.8759 13.249 27.8759C12.9501 27.8759 12.6635 27.7572 12.4521 27.5459C12.2408 27.3345 12.1221 27.0479 12.1221 26.749C12.1221 26.4501 12.2408 26.1635 12.4521 25.9521L18.4062 19.9999L12.454 14.0459C12.2427 13.8345 12.1239 13.5479 12.1239 13.249C12.1239 12.9501 12.2427 12.6635 12.454 12.4521C12.6654 12.2408 12.952 12.122 13.2509 12.122C13.5498 12.122 13.8364 12.2408 14.0478 12.4521L20 18.4062L25.954 12.4512C26.1654 12.2398 26.452 12.1211 26.7509 12.1211C27.0498 12.1211 27.3364 12.2398 27.5478 12.4512C27.7591 12.6625 27.8778 12.9492 27.8778 13.248C27.8778 13.5469 27.7591 13.8336 27.5478 14.0449L21.5937 19.9999L27.5459 25.954Z" fill="white"/>
</svg>
